<?xml version="1.0" encoding="utf-8"?>
<!-- Generator: Adobe Illustrator 23.0.1, SVG Export Plug-In . SVG Version: 6.00 Build 0)  -->
<svg version="1.1" id="レイヤー_1" xmlns="http://www.w3.org/2000/svg" xmlns:xlink="http://www.w3.org/1999/xlink" x="0px"
	 y="0px" viewBox="0 0 591 208" style="enable-background:new 0 0 591 208;" xml:space="preserve">
<style type="text/css">
	.st0{fill:#FBFFFF;}
</style>
<g>
	<g>
		<path class="st0" d="M82.2,94c0,16.5,0,34.5,13.7,34.5c7.9,0,13.2-6.6,13.2-19.5V4.2h52.1v97.5c0,41.9-19.9,65.6-62.1,65.6
			c-45.9,0-67.6-25.7-63.4-73.3C35.6,94,82.2,94,82.2,94z"/>
		<path class="st0" d="M170.5,163.2V4.2h69.8c51.2,0,83,23.9,83,76.2c0,59.9-33.4,82.8-84.3,82.8L170.5,163.2L170.5,163.2z
			 M222.6,126.1h11c24.3,0,37.5-12.8,37.5-42.8c0-33.1-10.8-41.9-38.6-41.9h-9.9V126.1z"/>
		<path class="st0" d="M332.5,163.2V4.2h52.1v159L332.5,163.2L332.5,163.2z"/>
		<path class="st0" d="M446.3,107.8v55.4h-52.1V4.2h75.1c53,0,70.5,14.3,70.5,45.2c0,18.3-8.1,33.8-26.8,38.9
			c16.7,6.2,27,10.1,27,42.2c0,20.8-0.7,27.9,5.5,27.9v4.8h-52.7c-1.3-3.5-2.6-13.7-2.6-27.9c0-20.8-3.5-27.6-27.9-27.6h-16V107.8z
			 M446.3,72.9h20.6c16.1,0,24.8-4,24.8-15c0-11.2-8.8-16.5-21-16.5h-24.3V72.9z"/>
	</g>
	<g>
		<g>
			<path class="st0" d="M33.7,188.1c0,0.8,0,1.7,0.1,2.4c0.1,0.8,0.2,1.5,0.6,2.1c0.3,0.7,0.8,1.1,1.4,1.5c0.7,0.3,1.5,0.6,2.6,0.6
				c1.7,0,2.9-0.4,3.5-1.4c0.7-1,1-2.3,1-4.2v-18.5h2.4v18.6c0,2.5-0.6,4.4-1.8,5.7s-3,2-5.5,2c-1.4,0-2.6-0.2-3.5-0.8
				c-0.9-0.4-1.5-1.1-2.1-2c-0.4-0.8-0.8-1.8-1-2.9c-0.2-1.1-0.2-2.2-0.2-3.3h2.4V188.1z"/>
			<path class="st0" d="M50.6,196.2v-25.7h9.2c1.5,0,2.8,0.1,3.9,0.4c1.1,0.3,2,0.8,2.6,1.3s1.2,1.2,1.4,2.1
				c0.3,0.8,0.4,1.7,0.4,2.6c0,0.9-0.1,1.7-0.3,2.3c-0.2,0.7-0.6,1.2-0.9,1.7c-0.3,0.4-0.8,0.8-1.3,1c-0.6,0.2-1,0.4-1.5,0.6v0.1
				c1.8,0.2,3.1,1,4,2.1c0.9,1.1,1.3,2.5,1.3,4.3c0,1.3-0.2,2.4-0.7,3.4c-0.4,0.9-1,1.7-1.8,2.2c-0.8,0.6-1.7,1-2.6,1.2
				c-1,0.2-2.2,0.3-3.4,0.3L50.6,196.2L50.6,196.2z M53,181.9h6.2c1.2,0,2.3-0.1,3.2-0.3c0.9-0.2,1.5-0.6,2.1-1
				c0.6-0.4,0.9-0.9,1.1-1.5c0.2-0.7,0.3-1.3,0.3-2.1c0-0.8-0.1-1.5-0.4-2.1c-0.2-0.6-0.7-1-1.2-1.3c-0.6-0.3-1.3-0.6-2.2-0.8
				c-0.9-0.1-2.1-0.2-3.4-0.2H53C53,172.5,53,181.9,53,181.9z M53,194.1h6.2c1.3,0,2.5-0.1,3.5-0.2c1-0.1,1.8-0.3,2.4-0.8
				c0.7-0.3,1.1-0.9,1.4-1.5c0.3-0.7,0.4-1.5,0.4-2.6c0-1.1-0.2-2-0.6-2.5c-0.3-0.7-0.9-1.2-1.5-1.5c-0.7-0.3-1.4-0.6-2.4-0.8
				c-0.9-0.1-2-0.2-3.1-0.2h-6.5v10.2H53z"/>
			<path class="st0" d="M75.7,203.5h-2.1v-25.8h2.1v3.2h0.1c0.3-0.6,0.7-1.1,1.2-1.7c0.6-0.6,1-0.9,1.7-1.2c0.6-0.3,1.2-0.6,1.8-0.7
				c0.7-0.2,1.2-0.2,1.9-0.2c1.5,0,2.8,0.2,3.9,0.8c1.1,0.6,1.9,1.2,2.5,2.1c0.7,0.9,1.2,1.9,1.4,3.1c0.3,1.2,0.4,2.4,0.4,3.9
				c0,1.3-0.2,2.5-0.6,3.7c-0.3,1.2-0.9,2.2-1.5,3.1c-0.7,0.9-1.5,1.7-2.5,2.1c-1,0.6-2.2,0.8-3.6,0.8c-1.3,0-2.5-0.3-3.7-0.9
				c-1.2-0.6-2.1-1.4-2.9-2.5V203.5z M75.7,187.1c0,1.1,0.1,2.1,0.4,3c0.3,1,0.7,1.8,1.2,2.4c0.6,0.7,1.2,1.2,2,1.7
				c0.8,0.4,1.7,0.7,2.6,0.7c1.1,0,2.1-0.2,2.9-0.7s1.5-1,2-1.8c0.6-0.8,0.9-1.7,1.1-2.6c0.2-1,0.3-2.1,0.3-3.3
				c0-1.2-0.1-2.2-0.4-3.1c-0.3-0.9-0.8-1.7-1.3-2.3c-0.6-0.7-1.2-1.1-2-1.4c-0.8-0.3-1.5-0.4-2.5-0.4c-1,0-1.9,0.2-2.6,0.7
				c-0.8,0.4-1.4,1-2,1.7c-0.6,0.7-0.9,1.5-1.2,2.5C75.8,184.9,75.7,185.9,75.7,187.1z"/>
			<path class="st0" d="M96.6,196.2h-2.1v-18.5h2.1v3.4h0.1c0.6-1.4,1.3-2.5,2.3-3.1s2.2-0.9,3.7-0.9v2.3c-1.2,0-2.2,0.2-3,0.6
				c-0.8,0.4-1.4,1-1.9,1.7c-0.4,0.7-0.8,1.5-1,2.4c-0.2,1-0.2,1.9-0.2,3v9.1H96.6z"/>
			<path class="st0" d="M106.7,187.5c0,1,0.1,2,0.4,2.9c0.2,0.9,0.7,1.7,1.2,2.3c0.6,0.7,1.2,1.2,2,1.5c0.8,0.4,1.7,0.6,2.8,0.6
				c1.4,0,2.6-0.3,3.6-1.1c1-0.8,1.7-1.8,2-3.2h2.4c-0.2,0.9-0.7,1.7-1,2.4c-0.4,0.8-1,1.4-1.7,2s-1.4,1-2.3,1.3
				c-0.9,0.3-1.9,0.4-3.1,0.4c-1.4,0-2.8-0.2-3.9-0.8s-2-1.2-2.6-2.1c-0.7-0.9-1.2-1.9-1.5-3.1c-0.3-1.2-0.6-2.4-0.6-3.7
				s0.2-2.6,0.6-3.9c0.4-1.2,1-2.2,1.7-3.1c0.8-0.9,1.7-1.5,2.6-2.1c1-0.6,2.2-0.8,3.5-0.8c2.5,0,4.5,0.9,5.9,2.6
				c1.4,1.8,2.2,4.3,2.1,7.6h-14.2V187.5z M118.8,185.6c0-0.9-0.1-1.8-0.3-2.5c-0.2-0.8-0.7-1.4-1.1-2.1c-0.4-0.6-1.1-1-1.9-1.4
				c-0.8-0.3-1.5-0.6-2.5-0.6c-1,0-1.8,0.2-2.5,0.6c-0.8,0.3-1.3,0.9-1.9,1.4c-0.6,0.6-0.9,1.3-1.2,2.1c-0.3,0.8-0.6,1.7-0.7,2.5
				H118.8z"/>
			<path class="st0" d="M125.8,190.4c0.3,1.5,0.9,2.8,1.8,3.4s2.1,1,3.7,1c0.8,0,1.4-0.1,2-0.3c0.6-0.2,1-0.4,1.4-0.8
				c0.3-0.3,0.7-0.7,0.9-1.1c0.2-0.4,0.3-0.9,0.3-1.3c0-0.9-0.3-1.5-0.9-2s-1.3-0.8-2.2-1s-1.9-0.4-2.9-0.7c-1-0.2-2-0.4-2.9-0.8
				c-0.9-0.3-1.7-0.9-2.2-1.5c-0.6-0.7-0.9-1.7-0.9-2.9c0-1.5,0.6-2.9,1.7-3.7c1.1-1,2.8-1.4,4.8-1.4c2,0,3.6,0.4,4.8,1.3
				s2,2.4,2.3,4.5h-2.2c-0.2-1.4-0.8-2.4-1.7-3c-0.9-0.6-2-0.9-3.4-0.9s-2.4,0.3-3.1,0.9c-0.7,0.6-1.1,1.3-1.1,2.3
				c0,0.9,0.3,1.4,0.9,1.9c0.6,0.4,1.3,0.8,2.2,1.1c0.9,0.2,1.9,0.6,2.9,0.8c1,0.2,2,0.6,2.9,0.9c0.9,0.4,1.7,0.9,2.2,1.5
				c0.6,0.7,0.9,1.5,0.9,2.8c0,0.9-0.2,1.7-0.6,2.3s-0.9,1.2-1.5,1.7c-0.7,0.4-1.4,0.8-2.4,1c-0.9,0.2-1.9,0.3-3,0.3
				c-1.1,0-2.1-0.1-2.9-0.4c-0.9-0.3-1.5-0.8-2.2-1.3c-0.6-0.6-1.1-1.2-1.4-2c-0.3-0.8-0.6-1.5-0.6-2.4h2.2V190.4z"/>
			<path class="st0" d="M142.8,190.4c0.3,1.5,0.9,2.8,1.8,3.4c0.9,0.7,2.1,1,3.7,1c0.8,0,1.4-0.1,2-0.3c0.6-0.2,1-0.4,1.4-0.8
				c0.3-0.3,0.7-0.7,0.9-1.1c0.2-0.4,0.3-0.9,0.3-1.3c0-0.9-0.3-1.5-0.9-2c-0.6-0.4-1.3-0.8-2.2-1c-0.9-0.2-1.9-0.4-2.9-0.7
				c-1-0.2-2-0.4-2.9-0.8s-1.7-0.9-2.2-1.5c-0.6-0.7-0.9-1.7-0.9-2.9c0-1.5,0.6-2.9,1.7-3.7c1.1-1,2.8-1.4,4.8-1.4
				c2,0,3.6,0.4,4.8,1.3c1.2,0.9,2,2.4,2.3,4.5h-2.2c-0.2-1.4-0.8-2.4-1.7-3c-0.9-0.6-2-0.9-3.4-0.9s-2.4,0.3-3.1,0.9
				c-0.7,0.6-1.1,1.3-1.1,2.3c0,0.9,0.3,1.4,0.9,1.9c0.6,0.4,1.3,0.8,2.2,1.1c0.9,0.2,1.9,0.6,2.9,0.8c1,0.2,2,0.6,2.9,0.9
				c0.9,0.4,1.7,0.9,2.2,1.5c0.6,0.7,0.9,1.5,0.9,2.8c0,0.9-0.2,1.7-0.6,2.3s-0.9,1.2-1.5,1.7c-0.7,0.4-1.4,0.8-2.4,1
				c-0.9,0.2-1.9,0.3-3,0.3c-1.1,0-2.1-0.1-2.9-0.4c-0.9-0.3-1.5-0.8-2.2-1.3c-0.6-0.6-1.1-1.2-1.4-2c-0.3-0.8-0.6-1.5-0.6-2.4h2.2
				V190.4z"/>
			<path class="st0" d="M168.2,196.2v-25.7h8.8c0.7,0,1.4,0,2.1,0c0.7,0,1.3,0.1,2,0.2s1.3,0.3,2,0.6s1.2,0.7,1.9,1
				c0.9,0.7,1.5,1.3,2.1,2.3c0.6,0.9,1,1.9,1.3,2.9c0.3,1,0.6,2,0.7,3c0.1,1,0.2,2,0.2,2.8c0,0.9,0,1.8-0.1,2.6
				c-0.1,0.9-0.3,1.8-0.6,2.5c-0.2,0.9-0.6,1.7-1,2.4c-0.4,0.8-0.9,1.4-1.4,2.1c-0.6,0.7-1.2,1.2-2,1.7c-0.7,0.4-1.4,0.8-2.2,1
				c-0.8,0.2-1.5,0.3-2.4,0.4c-0.9,0.1-1.7,0.1-2.5,0.1h-8.8V196.2z M170.6,194.1h5.8c1.1,0,2.1-0.1,3.1-0.2c1-0.1,2-0.4,3-1
				c0.9-0.4,1.5-1,2.1-1.8c0.6-0.8,1-1.5,1.3-2.4c0.3-0.9,0.6-1.8,0.7-2.8c0.1-1,0.2-1.9,0.2-2.8c0-0.9-0.1-1.9-0.2-2.9
				c-0.1-1-0.3-1.9-0.7-2.8c-0.3-0.9-0.8-1.7-1.3-2.4c-0.6-0.8-1.3-1.3-2.2-1.8c-0.8-0.4-1.7-0.7-2.8-0.8c-1.1-0.1-2.1-0.2-3.2-0.2
				h-5.8V194.1z"/>
			<path class="st0" d="M193,173.6v-3.1h2.3v3.2H193V173.6z M193.1,196.2v-18.5h2.1v18.5H193.1z"/>
			<path class="st0" d="M214.3,177.7h2.1v16.7c0,1.2-0.1,2.4-0.3,3.5c-0.2,1.1-0.7,2.1-1.3,3c-0.7,0.9-1.5,1.5-2.6,2.1
				c-1.1,0.6-2.5,0.8-4.3,0.8c-1.3,0-2.5-0.2-3.5-0.6s-1.8-0.8-2.4-1.3c-0.7-0.6-1.1-1.1-1.4-1.8s-0.4-1.2-0.6-1.8h2.3
				c0.1,0.7,0.4,1.2,0.8,1.7c0.3,0.4,0.8,0.8,1.3,1c0.4,0.2,1,0.4,1.7,0.6c0.6,0.1,1.2,0.1,1.9,0.1c1.4,0,2.6-0.2,3.5-0.8
				s1.5-1.1,2-2c0.4-0.8,0.8-1.8,0.9-2.8s0.2-2.1,0.1-3.2c-0.7,1.1-1.7,2-2.9,2.5c-1.2,0.6-2.4,0.9-3.7,0.9c-1.4,0-2.6-0.2-3.6-0.8
				c-1-0.6-1.9-1.2-2.5-2.1c-0.7-0.9-1.2-2-1.5-3.1c-0.3-1.2-0.6-2.4-0.6-3.7c0-1.3,0.1-2.6,0.4-3.9c0.3-1.2,0.8-2.2,1.4-3.1
				c0.7-0.9,1.5-1.5,2.5-2.1c1-0.6,2.3-0.8,3.9-0.8c0.6,0,1.2,0.1,1.9,0.2c0.7,0.2,1.2,0.4,1.8,0.7c0.6,0.3,1.1,0.7,1.7,1.2
				c0.6,0.6,0.9,1,1.2,1.7h0.1L214.3,177.7L214.3,177.7z M214.3,187.1c0-1.1-0.1-2.2-0.4-3.1c-0.2-1-0.7-1.8-1.2-2.5
				c-0.6-0.7-1.2-1.2-2-1.7c-0.8-0.4-1.7-0.7-2.6-0.7c-0.9,0-1.8,0.1-2.5,0.4c-0.8,0.3-1.4,0.8-2,1.4c-0.6,0.7-1,1.3-1.3,2.3
				c-0.3,0.9-0.4,1.9-0.4,3.1c0,1.2,0,2.2,0.3,3.3c0.2,1,0.7,1.9,1.1,2.6c0.6,0.8,1.2,1.3,2,1.8c0.8,0.4,1.8,0.7,2.9,0.7
				c1,0,1.9-0.2,2.6-0.7s1.4-1,2-1.7c0.6-0.7,1-1.5,1.2-2.4C214.1,189,214.3,188.1,214.3,187.1z"/>
			<path class="st0" d="M221.2,173.6v-3.1h2.3v3.2h-2.3V173.6z M221.3,196.2v-18.5h2.1v18.5H221.3z"/>
			<path class="st0" d="M234.6,196.3c-0.2,0-0.6,0.1-1,0.2c-0.4,0.1-0.9,0.2-1.4,0.2c-1.1,0-1.9-0.2-2.4-0.8
				c-0.6-0.6-0.9-1.5-0.9-2.9v-13.5h-2.6v-1.8h2.6v-5.2h2.1v5.2h3.4v1.8H231v12.7c0,0.4,0,0.9,0,1.2s0.1,0.7,0.2,0.8
				c0.1,0.2,0.3,0.3,0.6,0.4c0.2,0.1,0.6,0.1,1.1,0.1c0.3,0,0.6,0,0.9-0.1c0.3,0,0.6-0.1,0.9-0.2V196.3z"/>
			<path class="st0" d="M245.9,185.4c0.4,0,0.9-0.1,1.4-0.2c0.6-0.1,1-0.2,1.3-0.4s0.6-0.4,0.7-0.9s0.1-0.8,0.1-1.1
				c0-1.1-0.3-2-1.1-2.6c-0.7-0.7-1.9-1.1-3.5-1.1c-0.8,0-1.4,0.1-2,0.2c-0.7,0.1-1.2,0.3-1.7,0.7c-0.4,0.3-0.9,0.8-1.1,1.3
				c-0.3,0.6-0.4,1.2-0.6,2h-2.2c0.1-1.1,0.3-2,0.8-2.8c0.4-0.8,1-1.4,1.7-1.9c0.7-0.4,1.4-0.9,2.3-1.1c0.9-0.2,1.9-0.3,2.9-0.3
				c0.9,0,1.8,0.1,2.6,0.3c0.8,0.2,1.5,0.6,2.1,1c0.7,0.4,1.1,1,1.4,1.8c0.3,0.8,0.6,1.7,0.6,2.8v10c0,0.9,0.1,1.3,0.4,1.5
				c0.3,0.2,0.9,0.2,1.8-0.1v1.7c-0.2,0-0.4,0.1-0.8,0.2s-0.7,0.1-1,0.1c-0.3,0-0.7,0-1-0.1c-0.3,0-0.7-0.1-0.9-0.3
				c-0.2-0.2-0.4-0.4-0.6-0.7c-0.1-0.2-0.2-0.6-0.2-0.8c0-0.3-0.1-0.7-0.1-1c-0.9,1-2,1.8-3.1,2.3c-1.2,0.6-2.4,0.8-3.7,0.8
				c-0.8,0-1.5-0.1-2.3-0.3c-0.8-0.2-1.4-0.6-2-1c-0.6-0.4-1-1-1.3-1.7s-0.6-1.4-0.6-2.3c0-3.1,2.2-5,6.5-5.6L245.9,185.4z
				 M249.4,186.5c-0.9,0.3-1.9,0.7-2.8,0.8c-0.9,0.1-1.9,0.2-2.8,0.3c-1.7,0.1-3,0.4-3.9,1.1s-1.3,1.5-1.3,2.9
				c0,0.6,0.1,1.1,0.3,1.4c0.2,0.4,0.6,0.8,0.9,1s0.8,0.4,1.3,0.7c0.4,0.1,1,0.2,1.4,0.2c0.9,0,1.7-0.1,2.5-0.3
				c0.8-0.2,1.5-0.6,2.2-1c0.7-0.4,1.1-1,1.5-1.7c0.3-0.7,0.6-1.4,0.6-2.4v-3H249.4z"/>
			<path class="st0" d="M256.8,196.2v-25.7h2.1v25.7H256.8z"/>
			<path class="st0" d="M274,196.2v-25.7h2.4v25.7H274z"/>
			<path class="st0" d="M284.1,196.2H282v-18.5h2.1v2.5c0.9-0.9,1.8-1.7,2.6-2.2s2-0.9,3.3-0.9c1.1,0,2.2,0.2,3.2,0.6
				c1,0.4,1.8,1.1,2.4,2.1c0.4,0.7,0.8,1.3,0.8,2.1c0.1,0.7,0.1,1.4,0.1,2.2v12.1h-2.1v-12c0-1.7-0.3-2.9-1.1-3.7
				c-0.8-0.9-2-1.2-3.6-1.2c-0.7,0-1.3,0.1-1.9,0.3s-1,0.4-1.4,0.8s-0.8,0.7-1.1,1.1c-0.3,0.4-0.6,0.9-0.7,1.3
				c-0.2,0.6-0.3,1.2-0.4,1.8c0,0.6-0.1,1.1-0.1,1.8L284.1,196.2L284.1,196.2z"/>
			<path class="st0" d="M303.1,196.2H301v-18.5h2.1v2.5c0.9-0.9,1.8-1.7,2.6-2.2c0.9-0.6,2-0.9,3.3-0.9c1.1,0,2.2,0.2,3.2,0.6
				c1,0.4,1.8,1.1,2.4,2.1c0.4,0.7,0.8,1.3,0.8,2.1c0.1,0.7,0.1,1.4,0.1,2.2v12.1h-2.1v-12c0-1.7-0.3-2.9-1.1-3.7
				c-0.8-0.9-2-1.2-3.6-1.2c-0.7,0-1.3,0.1-1.9,0.3s-1,0.4-1.4,0.8s-0.8,0.7-1.1,1.1c-0.3,0.4-0.6,0.9-0.7,1.3
				c-0.2,0.6-0.3,1.2-0.4,1.8c0,0.6-0.1,1.1-0.1,1.8L303.1,196.2L303.1,196.2z"/>
			<path class="st0" d="M327.5,196.6c-1.2,0-2.3-0.2-3.3-0.7c-1-0.4-2-1-2.8-1.9c-0.8-0.8-1.4-1.9-1.9-3.1c-0.4-1.2-0.7-2.6-0.7-4.3
				c0-1.3,0.2-2.6,0.6-3.7c0.3-1.2,0.9-2.2,1.7-3.1c0.7-0.9,1.7-1.5,2.6-2.1c1.1-0.6,2.3-0.8,3.7-0.8c1.4,0,2.8,0.2,3.7,0.8
				c1.1,0.6,2,1.2,2.6,2.1c0.7,0.9,1.2,1.9,1.5,3.1c0.3,1.2,0.6,2.4,0.6,3.9c0,1.4-0.2,2.8-0.7,4s-1,2.2-1.8,3.1
				c-0.8,0.9-1.7,1.5-2.8,2C329.9,196.4,328.8,196.6,327.5,196.6z M333.7,187c0-1.1-0.1-2.1-0.3-3.1c-0.2-1-0.7-1.8-1.1-2.5
				c-0.6-0.7-1.1-1.2-1.9-1.7c-0.8-0.4-1.8-0.7-2.9-0.7c-1.1,0-2.1,0.2-2.9,0.7c-0.8,0.4-1.4,1-2,1.8s-0.9,1.5-1.1,2.5
				c-0.2,1-0.3,1.9-0.3,2.9c0,1.1,0.1,2.2,0.4,3.2c0.2,1,0.7,1.8,1.2,2.5c0.6,0.7,1.2,1.2,2,1.7c0.8,0.3,1.7,0.6,2.8,0.6
				s2.1-0.2,2.9-0.7c0.8-0.4,1.4-1,2-1.8c0.6-0.8,0.9-1.5,1.1-2.5C333.6,188.9,333.7,187.9,333.7,187z"/>
			<path class="st0" d="M337.3,177.7h2.3l5.9,15.9l5.9-15.9h2.3l-7.2,18.5h-2.4L337.3,177.7z"/>
			<path class="st0" d="M364.8,185.4c0.4,0,0.9-0.1,1.4-0.2c0.6-0.1,1-0.2,1.3-0.4c0.3-0.2,0.6-0.4,0.7-0.9s0.1-0.8,0.1-1.1
				c0-1.1-0.3-2-1.1-2.6c-0.7-0.7-1.9-1.1-3.5-1.1c-0.8,0-1.4,0.1-2,0.2c-0.7,0.1-1.2,0.3-1.7,0.7c-0.4,0.3-0.9,0.8-1.1,1.3
				c-0.3,0.6-0.4,1.2-0.6,2h-2.2c0.1-1.1,0.3-2,0.8-2.8c0.4-0.8,1-1.4,1.7-1.9c0.7-0.4,1.4-0.9,2.3-1.1c0.9-0.2,1.9-0.3,2.9-0.3
				c0.9,0,1.8,0.1,2.6,0.3c0.8,0.2,1.5,0.6,2.1,1c0.6,0.4,1.1,1,1.4,1.8c0.3,0.8,0.6,1.7,0.6,2.8v10c0,0.9,0.1,1.3,0.4,1.5
				c0.3,0.2,0.9,0.2,1.8-0.1v1.7c-0.2,0-0.4,0.1-0.8,0.2s-0.7,0.1-1,0.1c-0.3,0-0.7,0-1-0.1c-0.3,0-0.7-0.1-0.9-0.3
				c-0.2-0.2-0.4-0.4-0.6-0.7s-0.2-0.6-0.2-0.8c0-0.3-0.1-0.7-0.1-1c-0.9,1-2,1.8-3.1,2.3c-1.2,0.6-2.4,0.8-3.7,0.8
				c-0.8,0-1.5-0.1-2.3-0.3c-0.8-0.2-1.4-0.6-2-1c-0.6-0.4-1-1-1.3-1.7c-0.3-0.7-0.6-1.4-0.6-2.3c0-3.1,2.2-5,6.5-5.6L364.8,185.4z
				 M368.3,186.5c-0.9,0.3-1.9,0.7-2.8,0.8c-0.9,0.1-1.9,0.2-2.8,0.3c-1.7,0.1-3,0.4-3.9,1.1c-0.9,0.7-1.3,1.5-1.3,2.9
				c0,0.6,0.1,1.1,0.3,1.4c0.2,0.4,0.6,0.8,0.9,1c0.3,0.2,0.8,0.4,1.3,0.7c0.4,0.1,1,0.2,1.4,0.2c0.9,0,1.7-0.1,2.5-0.3
				c0.8-0.2,1.5-0.6,2.2-1c0.7-0.4,1.1-1,1.5-1.7c0.3-0.7,0.6-1.4,0.6-2.4v-3H368.3z"/>
			<path class="st0" d="M381.8,196.3c-0.2,0-0.6,0.1-1,0.2c-0.4,0.1-0.9,0.2-1.4,0.2c-1.1,0-1.9-0.2-2.4-0.8
				c-0.6-0.6-0.9-1.5-0.9-2.9v-13.5h-2.6v-1.8h2.6v-5.2h2.1v5.2h3.4v1.8h-3.4v12.7c0,0.4,0,0.9,0,1.2s0.1,0.7,0.2,0.8
				c0.1,0.2,0.3,0.3,0.6,0.4c0.2,0.1,0.6,0.1,1.1,0.1c0.3,0,0.6,0,0.9-0.1c0.3,0,0.6-0.1,0.9-0.2L381.8,196.3L381.8,196.3z"/>
			<path class="st0" d="M384.7,173.6v-3.1h2.3v3.2h-2.3V173.6z M384.8,196.2v-18.5h2.1v18.5H384.8z"/>
			<path class="st0" d="M399,196.6c-1.2,0-2.3-0.2-3.3-0.7c-1-0.4-2-1-2.8-1.9c-0.8-0.8-1.4-1.9-1.9-3.1c-0.4-1.2-0.7-2.6-0.7-4.3
				c0-1.3,0.2-2.6,0.6-3.7c0.3-1.2,0.9-2.2,1.7-3.1c0.7-0.9,1.7-1.5,2.6-2.1c1.1-0.6,2.3-0.8,3.7-0.8c1.4,0,2.8,0.2,3.7,0.8
				c1.1,0.6,2,1.2,2.6,2.1c0.7,0.9,1.2,1.9,1.5,3.1c0.3,1.2,0.6,2.4,0.6,3.9c0,1.4-0.2,2.8-0.7,4s-1,2.2-1.8,3.1
				c-0.8,0.9-1.7,1.5-2.8,2C401.4,196.4,400.3,196.6,399,196.6z M405.3,187c0-1.1-0.1-2.1-0.3-3.1c-0.2-1-0.7-1.8-1.1-2.5
				c-0.6-0.7-1.1-1.2-1.9-1.7c-0.8-0.4-1.8-0.7-2.9-0.7s-2.1,0.2-2.9,0.7c-0.8,0.4-1.4,1-2,1.8s-0.9,1.5-1.1,2.5
				c-0.2,1-0.3,1.9-0.3,2.9c0,1.1,0.1,2.2,0.4,3.2c0.2,1,0.7,1.8,1.2,2.5c0.6,0.7,1.2,1.2,2,1.7c0.8,0.3,1.7,0.6,2.8,0.6
				s2.1-0.2,2.9-0.7c0.8-0.4,1.4-1,2-1.8c0.6-0.8,0.9-1.5,1.1-2.5C405.4,188.8,405.3,187.9,405.3,187z"/>
			<path class="st0" d="M412.9,196.2h-2.1v-18.5h2.1v2.5c0.9-0.9,1.8-1.7,2.6-2.2c0.9-0.6,2-0.9,3.3-0.9c1.1,0,2.2,0.2,3.2,0.6
				c1,0.4,1.8,1.1,2.4,2.1c0.4,0.7,0.8,1.3,0.8,2.1c0.1,0.7,0.1,1.4,0.1,2.2v12.1h-2.1v-12c0-1.7-0.3-2.9-1.1-3.7
				c-0.8-0.9-2-1.2-3.6-1.2c-0.7,0-1.3,0.1-1.9,0.3s-1,0.4-1.4,0.8s-0.8,0.7-1.1,1.1c-0.3,0.4-0.6,0.9-0.7,1.3
				c-0.2,0.6-0.3,1.2-0.4,1.8c0,0.6-0.1,1.1-0.1,1.8L412.9,196.2L412.9,196.2z"/>
			<path class="st0" d="M441.7,184.5v11.7h-2.4v-25.7h10c2.9,0,5,0.6,6.5,1.5c1.5,1.1,2.2,2.8,2.2,5.2c0,1.7-0.3,2.9-1,3.9
				s-1.8,1.8-3.2,2.4c0.8,0.2,1.3,0.7,1.8,1.1c0.4,0.6,0.8,1.1,1,1.8c0.2,0.7,0.3,1.3,0.4,2c0.1,0.7,0.1,1.4,0.1,2.1
				c0,1,0.1,1.8,0.1,2.4c0.1,0.7,0.1,1.2,0.2,1.5c0.1,0.4,0.2,0.8,0.3,1c0.1,0.2,0.2,0.4,0.4,0.6v0.2h-2.6c-0.2-0.4-0.4-1-0.6-1.8
				c-0.1-0.8-0.2-1.5-0.2-2.4c-0.1-0.9-0.1-1.7-0.1-2.4c0-0.8-0.1-1.4-0.2-1.9c-0.1-0.7-0.3-1.2-0.7-1.7c-0.3-0.4-0.7-0.8-1.2-1
				c-0.4-0.2-1-0.3-1.5-0.4c-0.6-0.1-1.1-0.1-1.8-0.1L441.7,184.5L441.7,184.5z M449.2,182.4c0.9,0,1.8-0.1,2.5-0.3
				c0.8-0.2,1.4-0.4,2-0.9c0.6-0.4,1-1,1.3-1.5c0.3-0.7,0.6-1.4,0.6-2.3c0-1-0.2-1.8-0.6-2.3c-0.3-0.7-0.8-1.1-1.4-1.4
				c-0.6-0.3-1.2-0.7-2-0.8s-1.5-0.2-2.3-0.2h-7.7v9.9h7.6V182.4z"/>
			<path class="st0" d="M463.3,187.5c0,1,0.1,2,0.4,2.9c0.2,0.9,0.7,1.7,1.2,2.3s1.2,1.2,2,1.5c0.8,0.4,1.7,0.6,2.8,0.6
				c1.4,0,2.6-0.3,3.6-1.1c1-0.8,1.7-1.8,2-3.2h2.4c-0.2,0.9-0.7,1.7-1,2.4c-0.4,0.8-1,1.4-1.7,2s-1.4,1-2.3,1.3s-1.9,0.4-3.1,0.4
				c-1.4,0-2.8-0.2-3.9-0.8c-1.1-0.6-2-1.2-2.6-2.1c-0.7-0.9-1.2-1.9-1.5-3.1c-0.3-1.2-0.6-2.4-0.6-3.7s0.2-2.6,0.6-3.9
				c0.4-1.2,1-2.2,1.7-3.1c0.8-0.9,1.7-1.5,2.6-2.1c1-0.6,2.2-0.8,3.5-0.8c2.5,0,4.5,0.9,5.9,2.6c1.4,1.8,2.2,4.3,2.1,7.6h-14.2
				V187.5z M475.4,185.6c0-0.9-0.1-1.8-0.3-2.5s-0.7-1.4-1.1-2.1c-0.4-0.6-1.1-1-1.9-1.4c-0.8-0.3-1.5-0.6-2.5-0.6
				c-1,0-1.8,0.2-2.5,0.6c-0.8,0.3-1.3,0.9-1.9,1.4c-0.6,0.6-0.9,1.3-1.2,2.1s-0.6,1.7-0.7,2.5H475.4z"/>
			<path class="st0" d="M479.2,177.7h2.3l5.9,15.9l5.9-15.9h2.3l-7.2,18.5h-2.4L479.2,177.7z"/>
			<path class="st0" d="M498.4,173.6v-3.1h2.3v3.2h-2.3V173.6z M498.5,196.2v-18.5h2.1v18.5H498.5z"/>
			<path class="st0" d="M506.7,187.5c0,1,0.1,2,0.4,2.9c0.2,0.9,0.7,1.7,1.2,2.3s1.2,1.2,2,1.5c0.8,0.4,1.7,0.6,2.8,0.6
				c1.4,0,2.6-0.3,3.6-1.1c1-0.8,1.7-1.8,2-3.2h2.4c-0.2,0.9-0.7,1.7-1,2.4c-0.4,0.8-1,1.4-1.7,2s-1.4,1-2.3,1.3
				c-0.9,0.3-1.9,0.4-3.1,0.4c-1.4,0-2.8-0.2-3.9-0.8c-1.1-0.6-2-1.2-2.6-2.1c-0.7-0.9-1.2-1.9-1.5-3.1c-0.3-1.2-0.6-2.4-0.6-3.7
				s0.2-2.6,0.6-3.9c0.4-1.2,1-2.2,1.7-3.1c0.8-0.9,1.7-1.5,2.6-2.1c1-0.6,2.2-0.8,3.5-0.8c2.5,0,4.5,0.9,5.9,2.6
				c1.4,1.8,2.2,4.3,2.1,7.6h-14.2V187.5z M518.7,185.6c0-0.9-0.1-1.8-0.3-2.5s-0.7-1.4-1.1-2.1c-0.4-0.6-1.1-1-1.9-1.4
				c-0.8-0.3-1.5-0.6-2.5-0.6c-1,0-1.8,0.2-2.5,0.6c-0.8,0.3-1.3,0.9-1.9,1.4c-0.6,0.6-0.9,1.3-1.2,2.1s-0.6,1.7-0.7,2.5H518.7z"/>
			<path class="st0" d="M540.1,193.3l4.8-15.6h2.2l-5.9,18.5h-2.3l-4.1-15.5h-0.1l-4.1,15.5h-2.5l-5.6-18.5h2.1l4.7,15.7l4.3-15.7
				h2.4L540.1,193.3z"/>
		</g>
	</g>
</g>
</svg>
