<?xml version="1.0" encoding="utf-8"?>
<!-- Generator: Adobe Illustrator 16.0.0, SVG Export Plug-In . SVG Version: 6.00 Build 0)  -->
<!DOCTYPE svg PUBLIC "-//W3C//DTD SVG 1.1//EN" "http://www.w3.org/Graphics/SVG/1.1/DTD/svg11.dtd">
<svg version="1.1" id="Layer_1" xmlns="http://www.w3.org/2000/svg" xmlns:xlink="http://www.w3.org/1999/xlink" x="0px" y="0px"
	 width="96px" height="84px" viewBox="3.75 10.161 96 84" enable-background="new 3.75 10.161 96 84" xml:space="preserve">
<g>
	<ellipse fill="#C00065" cx="51.75" cy="76.5" rx="47.5" ry="17.125"/>
	<g>
		<path d="M88.125,30.904c4.172,0,6.886-0.91,8.067-2.705c1.221-1.855,0.307-4.027,0.298-4.051
			c-2.302-6.953-8.758-10.238-13.769-11.771c-5.438-1.662-10.395-1.68-10.443-1.68l0,0c-24.159,0-36.08,6.745-36.197,6.813
			l-0.025,0.016l-0.029-0.005c-2.959-0.359-5.767-0.542-8.344-0.542c-8.873,0-13.814,2.167-16.397,3.984
			c-2.793,1.967-3.505,3.958-3.511,3.979c-0.66,1.425-0.773,2.483-0.344,3.159c0.475,0.74,1.473,0.777,1.668,0.777h0.035
			c5.883-0.288,11.82-2.29,11.879-2.311l0.062-0.021l0.039,0.053c0.919,1.289,2.511,13.819,2.669,22.944
			c0.169,9.768-3.912,25.048-4.197,26.103c3.058,2.355,13.763,4.856,34.722,4.856c18.879,0,26.111-3.141,26.817-3.471
			c-0.207-1.176-3.065-17.57-3.233-25.556c-0.174-8.249,2.518-21.116,2.545-21.244l0.017-0.083l0.083,0.016
			C83.423,30.656,85.978,30.904,88.125,30.904z"/>
		<path fill="#FFFFFF" d="M70.938,29.225c-0.383,7.969-0.594,7.948-0.703,11.577c-0.072,2.409-0.135,4.489-0.25,7.001
			c-0.289,6.272,1.344,25.354,1.361,25.546l0.006,0.076l-0.074,0.017c-2.256,0.519-3.795,0.445-3.795,0.445l-0.086-0.004
			l0.004-0.086c0.404-13.478,0.348-17.998,0.295-22.37c-0.018-1.437-0.035-2.792-0.035-4.442c0-6.595-1.105-18.601-0.723-18.323
			L70.938,29.225z"/>
		<path fill="#FFFFFF" d="M33.325,18.789h0.614l-0.237,0.16c-0.084,0.057-8.523,5.666-22.066,7.836
			c-0.012,0.002-0.375,0.074-0.749,0.074c-0.451,0-0.724-0.107-0.81-0.32c-0.114-0.277,0.116-0.694,0.709-1.271l0.021-0.021
			l0.027-0.004c0.139-0.021,13.895-2.115,22.473-6.445L33.325,18.789z"/>
	</g>
</g>
</svg>
