<?xml version="1.0" encoding="utf-8"?>
<!-- Generator: Adobe Illustrator 16.0.0, SVG Export Plug-In . SVG Version: 6.00 Build 0)  -->
<!DOCTYPE svg PUBLIC "-//W3C//DTD SVG 1.1//EN" "http://www.w3.org/Graphics/SVG/1.1/DTD/svg11.dtd">
<svg version="1.1" id="Layer_1" xmlns="http://www.w3.org/2000/svg" xmlns:xlink="http://www.w3.org/1999/xlink" x="0px" y="0px"
	 width="155px" height="139px" viewBox="0 0 155 139" enable-background="new 0 0 155 139" xml:space="preserve">
<symbol  id="eye" viewBox="-9.751 -9.75 19.502 19.499">
	<path d="M9.751,0c0-5.386-4.367-9.75-9.75-9.75c-5.385,0-9.752,4.364-9.752,9.75c0,5.384,4.367,9.749,9.752,9.749
		C5.384,9.749,9.751,5.384,9.751,0z"/>
	<path fill="#FFFFFF" d="M4.681,4.59c0-1.452-1.177-2.63-2.63-2.63c-1.452,0-2.629,1.178-2.629,2.63s1.177,2.63,2.629,2.63
		C3.504,7.22,4.681,6.042,4.681,4.59z"/>
	<path fill="#FFFFFF" d="M7.305,0.729c0-0.9-0.73-1.63-1.629-1.63c-0.9,0-1.63,0.729-1.63,1.63c0,0.899,0.729,1.629,1.63,1.629
		C6.574,2.357,7.305,1.628,7.305,0.729z"/>
</symbol>
<g>
	<path fill="#C00065" d="M10.719,138.711c-9.479,0-13.391-6.736-8.693-14.969L68.958,6.455c4.698-8.233,12.386-8.233,17.084,0
		l66.933,117.288c4.698,8.232,0.786,14.969-8.693,14.969H10.719z"/>
</g>
<g>
	<path d="M27.5,119.921c0,4.418,3.582,8,8,8h84c4.418,0,8-3.582,8-8v-84c0-4.418-3.582-8-8-8h-84c-4.418,0-8,3.582-8,8V119.921z"/>
</g>
<rect x="37.5" y="60.921" fill="#FFFFFF" width="80" height="57"/>
<g display="none">
	<path display="inline" fill="#FFFFFF" d="M64.601,48.921c-1.1,0-1.58-0.796-1.066-1.769l5.529-10.463
		c0.514-0.973,1.834-1.769,2.934-1.769h19.749c1.1,0,2.421,0.796,2.935,1.769l5.528,10.463c0.514,0.973,0.034,1.769-1.065,1.769
		H64.601z"/>
</g>
<rect x="37.5" y="45.921" fill="#FFFFFF" width="80" height="9"/>
<circle fill="#FF0000" cx="35.999" cy="36.203" r="3.5"/>
<circle fill="#FF8F00" cx="45.999" cy="36.203" r="3.499"/>
<circle fill="#93D732" cx="55.999" cy="36.203" r="3.5"/>
<path fill="#FFFFFF" d="M64.601,48.921c-1.1,0-1.58-0.796-1.066-1.769l5.529-10.463c0.514-0.973,1.834-1.769,2.934-1.769h19.749
	c1.1,0,2.421,0.796,2.935,1.769l5.528,10.463c0.514,0.973,0.034,1.769-1.065,1.769H64.601z"/>
<g>
	<path fill="#FFFFFF" d="M101.566,43.421c-0.275,0-0.605-0.199-0.733-0.442l-2.704-5.116C98,37.62,98.12,37.421,98.395,37.421h8.852
		c0.275,0,0.645,0.062,0.82,0.139s0.51,0.496,0.638,0.739l2.473,4.68c0.128,0.243,0.009,0.442-0.267,0.442H101.566z"/>
</g>
<g>
	
		<use xlink:href="#eye"  width="19.502" height="19.499" id="XMLID_2_" x="-9.751" y="-9.75" transform="matrix(1 0 0 -1 90.1558 84.8374)" overflow="visible"/>
	
		<use xlink:href="#eye"  width="19.502" height="19.499" id="XMLID_1_" x="-9.751" y="-9.75" transform="matrix(1 0 0 -1 64.8433 84.8374)" overflow="visible"/>
	<path fill="none" stroke="#000000" stroke-width="5" stroke-miterlimit="10" d="M69.705,109.087c0-4.453,3.61-8.062,8.063-8.062
		s8.062,3.609,8.062,8.062"/>
</g>
</svg>
