<?xml version="1.0" encoding="utf-8"?>
<!-- Generator: Adobe Illustrator 18.1.1, SVG Export Plug-In . SVG Version: 6.00 Build 0)  -->
<!DOCTYPE svg PUBLIC "-//W3C//DTD SVG 1.1//EN" "http://www.w3.org/Graphics/SVG/1.1/DTD/svg11.dtd">
<svg version="1.1" id="Layer_1" xmlns="http://www.w3.org/2000/svg" xmlns:xlink="http://www.w3.org/1999/xlink" x="0px" y="0px"
	 viewBox="0 0 380.3 23.9" enable-background="new 0 0 380.3 23.9" xml:space="preserve">
<g>
	<path d="M52,9c0.4-0.1,1-0.2,1.6-0.2c0.8,0,1.6,0.2,2.1,0.7c0.4,0.4,0.6,0.9,0.6,1.6c0,1-0.5,1.7-1.4,2.1v0
		c1.1,0.3,1.7,1.2,1.7,2.4c0,0.8-0.2,1.4-0.7,1.9c-0.5,0.6-1.4,0.8-2.5,0.8c-0.7,0-1.1,0-1.4-0.1V9z M53.1,12.9h0.5
		c0.9,0,1.6-0.7,1.6-1.6c0-0.9-0.4-1.5-1.5-1.5c-0.2,0-0.4,0-0.6,0.1V12.9z M53.1,17.4c0.1,0,0.3,0.1,0.5,0.1c1.1,0,1.8-0.7,1.8-1.9
		c0-1.3-0.9-1.9-1.9-1.9h-0.5V17.4z"/>
	<path d="M58.7,15c0,2,0.8,2.5,1.6,2.5c0.5,0,0.8-0.1,1.1-0.3l0.2,0.8c-0.4,0.2-0.9,0.3-1.5,0.3c-1.6,0-2.4-1.3-2.4-3.4
		c0-2.2,0.9-3.5,2.3-3.5c1.4,0,1.9,1.4,1.9,3c0,0.2,0,0.4,0,0.6H58.7z M60.8,14.2c0-1.3-0.5-1.9-1-1.9c-0.7,0-1.1,1-1.1,1.9H60.8z"
		/>
	<path d="M64.2,9.8c0,0.4-0.2,0.7-0.7,0.7c-0.3,0-0.6-0.3-0.6-0.7c0-0.4,0.3-0.7,0.6-0.7C64,9.1,64.2,9.4,64.2,9.8z M63.1,18.2v-6.7
		h1.1v6.7H63.1z"/>
	<path d="M64.6,20.2c0.3-0.1,0.7-0.2,0.9-0.5c0.2-0.4,0.3-0.9,0.3-2.1v-6h1.1v6.3c0,1.4-0.2,2.1-0.7,2.6c-0.4,0.4-1.1,0.6-1.5,0.6
		L64.6,20.2z M67,9.8c0,0.4-0.2,0.7-0.7,0.7c-0.3,0-0.6-0.3-0.6-0.7c0-0.4,0.3-0.7,0.6-0.7C66.8,9.1,67,9.4,67,9.8z"/>
	<path d="M69.7,9.8c0,0.4-0.2,0.7-0.7,0.7c-0.3,0-0.6-0.3-0.6-0.7c0-0.4,0.3-0.7,0.6-0.7C69.4,9.1,69.7,9.4,69.7,9.8z M68.5,18.2
		v-6.7h1.1v6.7H68.5z"/>
	<path d="M71.2,13.3c0-0.8,0-1.2-0.1-1.7h0.9l0.1,0.8h0c0.3-0.5,0.8-0.9,1.5-0.9c0.9,0,1.6,0.7,1.6,2.3v4.5h-1.1v-4.3
		c0-0.8-0.2-1.6-0.9-1.6c-0.4,0-0.9,0.4-1,1.1c0,0.2,0,0.4,0,0.6v4.2h-1.1V13.3z"/>
	<path d="M81,11.5c0,0.5-0.1,1.1-0.1,2.1v3.7c0,1.8-0.2,2.4-0.7,2.9c-0.4,0.5-1,0.7-1.8,0.7c-0.6,0-1.1-0.1-1.5-0.3l0.2-0.8
		c0.3,0.1,0.7,0.3,1.2,0.3c0.8,0,1.4-0.5,1.4-2v-0.7h0c-0.2,0.5-0.7,0.8-1.3,0.8c-1.2,0-2-1.3-2-3.3c0-2.5,1.1-3.5,2.1-3.5
		c0.7,0,1.1,0.5,1.2,0.9h0l0.1-0.8H81z M79.9,13.8c0-0.2,0-0.3-0.1-0.5c-0.1-0.5-0.4-1-1-1c-0.8,0-1.2,1-1.2,2.5
		c0,1.7,0.5,2.5,1.2,2.5c0.3,0,0.7-0.2,1-1c0.1-0.2,0.1-0.4,0.1-0.6V13.8z"/>
</g>
<g>
	<path d="M87.6,13.9c0-0.7,0.5-1.3,1.1-1.3c0.7,0,1.1,0.5,1.1,1.3c0,0.8-0.4,1.3-1.1,1.3C88.1,15.1,87.6,14.7,87.6,13.9z"/>
</g>
<g>
	<path d="M131.1,13.9c0-0.7,0.5-1.3,1.1-1.3c0.7,0,1.1,0.5,1.1,1.3c0,0.8-0.4,1.3-1.1,1.3C131.6,15.1,131.1,14.7,131.1,13.9z"/>
</g>
<g>
	<path d="M140.1,8.9h3.6v0.9h-2.5v3.3h2.3V14h-2.3v4.2h-1.1V8.9z"/>
	<path d="M147.1,18.2l-0.1-0.7h0c-0.3,0.5-0.8,0.8-1.3,0.8c-0.9,0-1.6-0.8-1.6-1.9c0-1.7,1.3-2.4,2.9-2.4v-0.2
		c0-0.9-0.2-1.5-1.1-1.5c-0.4,0-0.8,0.1-1.1,0.3l-0.2-0.7c0.3-0.2,0.9-0.4,1.6-0.4c1.3,0,1.9,0.9,1.9,2.4v2.9c0,0.5,0,1.1,0.1,1.5
		H147.1z M147,14.8c-0.6,0-1.8,0.1-1.8,1.5c0,0.9,0.4,1.2,0.8,1.2c0.5,0,0.9-0.3,1-1c0-0.1,0-0.3,0-0.4V14.8z"/>
	<path d="M149.6,13.3c0-0.6,0-1.2-0.1-1.7h1l0.1,1.1h0c0.2-0.6,0.8-1.2,1.4-1.2c0.1,0,0.2,0,0.2,0v1.1c-0.1,0-0.1,0-0.2,0
		c-0.7,0-1.2,0.6-1.3,1.4c0,0.2,0,0.4,0,0.6v3.7h-1.1V13.3z"/>
	<path d="M153.2,13.3c0-0.8,0-1.2-0.1-1.7h0.9l0.1,0.8h0c0.3-0.5,0.8-0.9,1.5-0.9c0.9,0,1.6,0.7,1.6,2.3v4.5h-1.1v-4.3
		c0-0.8-0.2-1.6-0.9-1.6c-0.4,0-0.9,0.4-1,1.1c0,0.2,0,0.4,0,0.6v4.2h-1.1V13.3z"/>
	<path d="M159,8.7h1.1v3.6h0c0.1-0.2,0.3-0.4,0.6-0.6c0.2-0.2,0.5-0.2,0.9-0.2c0.8,0,1.6,0.7,1.6,2.4v4.4H162v-4.3
		c0-0.8-0.2-1.6-0.9-1.6c-0.5,0-0.9,0.4-1,1.1c0,0.2,0,0.3,0,0.5v4.3H159V8.7z"/>
	<path d="M167.3,18.2l-0.1-0.7h0c-0.3,0.5-0.8,0.8-1.3,0.8c-0.9,0-1.6-0.8-1.6-1.9c0-1.7,1.3-2.4,2.9-2.4v-0.2
		c0-0.9-0.2-1.5-1.1-1.5c-0.4,0-0.8,0.1-1.1,0.3l-0.2-0.7c0.3-0.2,0.9-0.4,1.6-0.4c1.3,0,1.9,0.9,1.9,2.4v2.9c0,0.5,0,1.1,0.1,1.5
		H167.3z M167.2,14.8c-0.6,0-1.8,0.1-1.8,1.5c0,0.9,0.4,1.2,0.8,1.2c0.5,0,0.9-0.3,1-1c0-0.1,0-0.3,0-0.4V14.8z"/>
	<path d="M169.9,13.3c0-0.8,0-1.2-0.1-1.7h0.9l0.1,0.8h0c0.3-0.5,0.8-0.9,1.5-0.9c0.6,0,1.1,0.3,1.4,1h0c0.2-0.3,0.4-0.6,0.7-0.8
		c0.3-0.2,0.6-0.3,0.9-0.3c0.9,0,1.6,0.7,1.6,2.4v4.4h-1.1V14c0-0.9-0.1-1.7-0.9-1.7c-0.4,0-0.8,0.4-1,1c0,0.2,0,0.4,0,0.6v4.3h-1.1
		v-4.4c0-0.7-0.1-1.5-0.9-1.5c-0.4,0-0.9,0.4-1,1.1c0,0.2,0,0.4,0,0.6v4.2h-1.1V13.3z"/>
</g>
<g>
	<path d="M183.2,13.9c0-0.7,0.5-1.3,1.1-1.3c0.7,0,1.1,0.5,1.1,1.3c0,0.8-0.4,1.3-1.1,1.3C183.7,15.1,183.2,14.7,183.2,13.9z"/>
</g>
<g>
	<path d="M192,17c0.3,0.2,0.9,0.4,1.3,0.4c1,0,1.6-0.6,1.6-1.6c0-0.9-0.5-1.4-1.2-1.9c-0.7-0.5-1.8-1.4-1.8-2.6c0-1.4,1-2.5,2.5-2.5
		c0.6,0,1.1,0.2,1.3,0.3l-0.3,0.9c-0.2-0.2-0.6-0.3-1.1-0.3c-0.9,0-1.3,0.7-1.3,1.3c0,0.9,0.5,1.3,1.4,1.9c1.1,0.8,1.6,1.6,1.6,2.7
		c0,1.6-1.1,2.6-2.6,2.6c-0.6,0-1.3-0.2-1.6-0.4L192,17z"/>
	<path d="M198.1,15c0,2,0.8,2.5,1.6,2.5c0.5,0,0.8-0.1,1.1-0.3L201,18c-0.4,0.2-0.9,0.3-1.5,0.3c-1.6,0-2.4-1.3-2.4-3.4
		c0-2.2,0.9-3.5,2.3-3.5c1.4,0,1.9,1.4,1.9,3c0,0.2,0,0.4,0,0.6H198.1z M200.2,14.2c0-1.3-0.5-1.9-1-1.9c-0.7,0-1.1,1-1.1,1.9H200.2
		z"/>
	<path d="M202.5,18.2c0-0.4,0.1-1.1,0.1-1.6v-8h1.1v3.7h0c0.3-0.7,0.8-0.9,1.4-0.9c1,0,1.8,1.2,1.8,3.4c0,2.4-1,3.5-2,3.5
		c-0.7,0-1.1-0.4-1.3-1h0l-0.1,0.9H202.5z M203.6,15.9c0,0.2,0,0.3,0,0.4c0.2,1,0.7,1.2,1,1.2c0.9,0,1.2-1.2,1.2-2.6
		c0-1.3-0.3-2.5-1.2-2.5c-0.5,0-0.9,0.6-1,1.2c0,0.2,0,0.3,0,0.5V15.9z"/>
	<path d="M210.8,18.2l-0.1-0.7h0c-0.3,0.5-0.8,0.8-1.3,0.8c-0.9,0-1.6-0.8-1.6-1.9c0-1.7,1.3-2.4,2.9-2.4v-0.2
		c0-0.9-0.2-1.5-1.1-1.5c-0.4,0-0.8,0.1-1.1,0.3l-0.2-0.7c0.3-0.2,0.9-0.4,1.6-0.4c1.3,0,1.9,0.9,1.9,2.4v2.9c0,0.5,0,1.1,0.1,1.5
		H210.8z M210.7,14.8c-0.6,0-1.8,0.1-1.8,1.5c0,0.9,0.4,1.2,0.8,1.2c0.5,0,0.9-0.3,1-1c0-0.1,0-0.3,0-0.4V14.8z"/>
	<path d="M213.2,17.1c0.2,0.2,0.7,0.3,1.1,0.3c0.6,0,1-0.4,1-1c0-0.5-0.2-0.9-0.9-1.3c-0.9-0.6-1.3-1.1-1.3-1.9
		c0-1.1,0.8-1.9,1.8-1.9c0.5,0,0.9,0.2,1.2,0.3l-0.3,0.8c-0.2-0.2-0.5-0.3-0.9-0.3c-0.6,0-0.9,0.4-0.9,0.8c0,0.5,0.2,0.7,0.8,1.2
		c0.8,0.5,1.4,1.1,1.4,2c0,1.3-0.9,2-2,2c-0.5,0-1-0.2-1.3-0.4L213.2,17.1z"/>
	<path d="M218.8,9.8v1.8h1.3v0.8h-1.3v4c0,0.9,0.3,1.1,0.7,1.1c0.2,0,0.3,0,0.4,0l0,0.8c-0.2,0.1-0.4,0.1-0.8,0.1
		c-0.4,0-0.8-0.1-1.1-0.4c-0.3-0.3-0.4-0.8-0.4-1.7v-3.9h-0.8v-0.8h0.8v-1.5L218.8,9.8z"/>
	<path d="M225.2,14.9c0,2.6-1.2,3.5-2.2,3.5c-1.2,0-2.2-1.1-2.2-3.4c0-2.5,1.1-3.5,2.2-3.5C224.2,11.4,225.2,12.5,225.2,14.9z
		 M221.8,14.9c0,1.1,0.2,2.6,1.2,2.6c0.9,0,1.1-1.6,1.1-2.6c0-1-0.2-2.6-1.1-2.6C222,12.3,221.8,13.9,221.8,14.9z"/>
	<path d="M226.5,13.6c0-1,0-1.6-0.1-2.1h1l0.1,0.9h0c0.4-0.7,0.9-1,1.4-1c1.2,0,1.9,1.2,1.9,3.4c0,2.5-1,3.5-2.1,3.5
		c-0.6,0-1-0.4-1.2-0.8h0v3.3h-1.1V13.6z M227.6,15.8c0,0.2,0,0.4,0,0.6c0.2,1,0.7,1.1,1,1.1c0.9,0,1.2-1.2,1.2-2.6
		c0-1.4-0.3-2.5-1.2-2.5c-0.5,0-0.9,0.6-1,1.2c0,0.2,0,0.3,0,0.5V15.8z"/>
	<path d="M236.3,14.9c0,2.6-1.2,3.5-2.2,3.5c-1.2,0-2.2-1.1-2.2-3.4c0-2.5,1.1-3.5,2.2-3.5C235.3,11.4,236.3,12.5,236.3,14.9z
		 M232.9,14.9c0,1.1,0.2,2.6,1.2,2.6c0.9,0,1.1-1.6,1.1-2.6c0-1-0.2-2.6-1.1-2.6C233.1,12.3,232.9,13.9,232.9,14.9z"/>
	<path d="M237.6,8.7h1.1v9.6h-1.1V8.7z"/>
</g>
<g>
	<path d="M245.4,13.9c0-0.7,0.5-1.3,1.1-1.3c0.7,0,1.1,0.5,1.1,1.3c0,0.8-0.4,1.3-1.1,1.3C245.9,15.1,245.4,14.7,245.4,13.9z"/>
</g>
<g>
	<path d="M255.1,9.9h-1.7v-1h4.5v1h-1.7v8.4h-1.1V9.9z"/>
	<path d="M262.2,14.9c0,2.6-1.2,3.5-2.2,3.5c-1.2,0-2.2-1.1-2.2-3.4c0-2.5,1.1-3.5,2.2-3.5C261.3,11.4,262.2,12.5,262.2,14.9z
		 M258.9,14.9c0,1.1,0.2,2.6,1.2,2.6c0.9,0,1.1-1.6,1.1-2.6c0-1-0.2-2.6-1.1-2.6C259.1,12.3,258.9,13.9,258.9,14.9z"/>
	<path d="M264.6,14.7L264.6,14.7c0.2-0.3,0.3-0.5,0.4-0.7l1.3-2.4h1.1l-1.8,2.8l1.9,3.9h-1.2l-1.5-3.2l-0.4,0.6v2.5h-1.1V8.7h1.1
		V14.7z"/>
	<path d="M269.1,11.5l0.9,3.8c0.1,0.5,0.2,1,0.3,1.4h0c0.1-0.4,0.2-0.9,0.3-1.4l0.8-3.9h1.1l-1.1,4.3c-0.4,1.7-0.9,3.3-1.7,4.3
		c-0.5,0.6-1,0.9-1.2,1l-0.4-0.9c0.3-0.2,0.6-0.5,0.9-0.8c0.3-0.3,0.5-0.8,0.6-1.1c0.1-0.2,0.1-0.2,0.1-0.3c0-0.1,0-0.2,0-0.2
		l-1.7-6.2H269.1z"/>
	<path d="M277.4,14.9c0,2.6-1.2,3.5-2.2,3.5c-1.2,0-2.2-1.1-2.2-3.4c0-2.5,1.1-3.5,2.2-3.5C276.5,11.4,277.4,12.5,277.4,14.9z
		 M274.1,14.9c0,1.1,0.2,2.6,1.2,2.6c0.9,0,1.1-1.6,1.1-2.6c0-1-0.2-2.6-1.1-2.6C274.3,12.3,274.1,13.9,274.1,14.9z"/>
</g>
<rect x="292.6" y="0" width="87.7" height="23.9"/>
<polygon fill="#FFFFFF" points="336.4,7.7 336.4,5.7 327.8,5.7 327.8,18.1 336.4,18.1 336.4,16 329.9,16 329.9,12.9 336.1,12.9 
	336.1,10.8 329.9,10.8 329.9,7.7 "/>
<polygon fill="#FFFFFF" points="342.8,18.1 342.8,5.7 344.8,5.7 344.8,16 350.8,16 350.8,18.1 "/>
<polygon fill="#FFFFFF" points="352.5,18.1 352.5,5.7 354.5,5.7 354.5,16 360.5,16 360.5,18.1 "/>
<rect x="338.6" y="5.7" fill="#FFFFFF" width="2.1" height="12.4"/>
<g>
	<defs>
		<rect id="SVGID_1_" x="292.6" y="0" width="87.7" height="23.9"/>
	</defs>
	<clipPath id="SVGID_2_">
		<use xlink:href="#SVGID_1_"  overflow="visible"/>
	</clipPath>
	<path clip-path="url(#SVGID_2_)" fill="#FFFFFF" d="M302.1,8.8c-0.8,0.8-1.3,1.9-1.3,3.1c0,1.2,0.5,2.3,1.3,3.1
		c0.8,0.8,1.9,1.3,3.1,1.3s2.3-0.5,3.1-1.3c0.8-0.8,1.3-1.9,1.3-3.1c0-1.2-0.5-2.3-1.3-3.1c-0.8-0.8-1.9-1.3-3.1-1.3
		C303.9,7.5,302.9,8,302.1,8.8 M298.7,11.9c0-3.6,2.9-6.4,6.4-6.4c3.6,0,6.4,2.9,6.4,6.4c0,3.6-2.9,6.4-6.4,6.4
		C301.6,18.4,298.7,15.5,298.7,11.9"/>
	<path clip-path="url(#SVGID_2_)" fill="#FFFFFF" d="M318,10.8V7.7h4.2c0.9,0,1.5,0.7,1.5,1.5c0,0.9-0.7,1.5-1.5,1.5H318z
		 M323.2,12.7c1.5-0.4,2.6-1.8,2.6-3.5c0-2-1.6-3.6-3.6-3.6h-6.2v12.4h2.1v-5.2h2.9l3.1,5.2h2.4L323.2,12.7z"/>
	<path clip-path="url(#SVGID_2_)" fill="#FFFFFF" d="M314.4,7c0,0.8-0.7,1.5-1.5,1.5c-0.8,0-1.5-0.7-1.5-1.5c0-0.8,0.7-1.5,1.5-1.5
		C313.8,5.5,314.4,6.2,314.4,7"/>
	<polygon clip-path="url(#SVGID_2_)" fill="#FFFFFF" points="369.7,5.7 367.2,5.7 364,10.3 360.8,5.7 358.3,5.7 363,12.4 363,18.1 
		365,18.1 365,12.4 	"/>
	<path clip-path="url(#SVGID_2_)" fill="#FFFFFF" d="M372.6,9.6c-1,0-1.8-0.8-1.8-1.8c0-1,0.8-1.8,1.8-1.8c1,0,1.8,0.8,1.8,1.8
		C374.4,8.8,373.6,9.6,372.6,9.6 M372.6,5.7c-1.2,0-2.1,1-2.1,2.1c0,1.2,1,2.1,2.1,2.1c1.2,0,2.1-1,2.1-2.1
		C374.8,6.6,373.8,5.7,372.6,5.7"/>
	<path clip-path="url(#SVGID_2_)" fill="#FFFFFF" d="M372.1,7.1h0.8c0.1,0,0.3,0.1,0.3,0.3c0,0.2-0.1,0.3-0.3,0.3h-0.8V7.1z
		 M373.6,7.3c0-0.4-0.3-0.6-0.6-0.6h-1.2v2.2h0.4V8h0.6l0.4,0.9h0.4L373.1,8C373.4,7.9,373.6,7.6,373.6,7.3"/>
</g>
<g>
	<path d="M96.8,8.9c0.4-0.1,1-0.2,1.6-0.2c0.9,0,1.6,0.2,2.1,0.7c0.4,0.4,0.6,0.9,0.6,1.6c0,1-0.5,1.7-1.5,2.1v0
		c1.1,0.3,1.8,1.2,1.8,2.4c0,0.8-0.3,1.4-0.7,1.9c-0.5,0.6-1.4,0.9-2.5,0.9c-0.7,0-1.1,0-1.4-0.1V8.9z M97.9,12.8h0.5
		c0.9,0,1.6-0.7,1.6-1.7c0-0.9-0.4-1.5-1.6-1.5c-0.3,0-0.4,0-0.6,0.1V12.8z M97.9,17.4c0.1,0,0.3,0.1,0.5,0.1c1.1,0,1.8-0.7,1.8-1.9
		c0-1.3-0.9-1.9-1.9-1.9h-0.5V17.4z"/>
	<path d="M106.9,14.8c0,2.6-1.2,3.5-2.3,3.5c-1.2,0-2.2-1.1-2.2-3.5c0-2.5,1.1-3.5,2.3-3.5C105.9,11.3,106.9,12.5,106.9,14.8z
		 M103.5,14.8c0,1.1,0.2,2.6,1.2,2.6c0.9,0,1.1-1.6,1.1-2.6c0-1-0.2-2.6-1.1-2.6C103.7,12.2,103.5,13.8,103.5,14.8z"/>
	<path d="M107.9,17.1c0.2,0.2,0.7,0.4,1.1,0.4c0.6,0,1-0.4,1-1c0-0.5-0.2-0.9-0.9-1.3c-0.9-0.6-1.4-1.1-1.4-1.9
		c0-1.1,0.8-1.9,1.9-1.9c0.5,0,0.9,0.2,1.2,0.3l-0.3,0.8c-0.3-0.2-0.5-0.3-0.9-0.3c-0.6,0-0.9,0.4-0.9,0.9c0,0.5,0.2,0.7,0.8,1.2
		c0.8,0.5,1.4,1.1,1.4,2.1c0,1.4-0.9,2-2,2c-0.5,0-1.1-0.2-1.3-0.4L107.9,17.1z"/>
	<path d="M113.4,9.6v1.8h1.3v0.8h-1.3v4c0,0.9,0.3,1.1,0.7,1.1c0.2,0,0.3,0,0.4,0l0,0.8c-0.2,0.1-0.4,0.1-0.8,0.1
		c-0.4,0-0.8-0.1-1.1-0.4c-0.3-0.3-0.4-0.8-0.4-1.7v-3.9h-0.8v-0.8h0.8V9.9L113.4,9.6z"/>
	<path d="M119.7,14.8c0,2.6-1.2,3.5-2.3,3.5c-1.2,0-2.2-1.1-2.2-3.5c0-2.5,1.1-3.5,2.3-3.5C118.7,11.3,119.7,12.5,119.7,14.8z
		 M116.3,14.8c0,1.1,0.2,2.6,1.2,2.6c0.9,0,1.1-1.6,1.1-2.6c0-1-0.2-2.6-1.1-2.6C116.5,12.2,116.3,13.8,116.3,14.8z"/>
	<path d="M120.9,13.2c0-0.8,0-1.2-0.1-1.8h0.9l0.1,0.8h0c0.3-0.5,0.8-0.9,1.6-0.9c0.9,0,1.6,0.7,1.6,2.3v4.6H124v-4.4
		c0-0.8-0.2-1.6-0.9-1.6c-0.4,0-0.9,0.4-1,1.1c0,0.2,0,0.4,0,0.6v4.3h-1.1V13.2z"/>
</g>
</svg>
