<svg xmlns="http://www.w3.org/2000/svg" xmlns:xlink="http://www.w3.org/1999/xlink" viewBox="0 0 283 64">
<g fill="#43304A">
	<path d="M27.4,30.9c-0.1-1.3-0.6-2.3-1.4-3c-0.9-0.7-2.2-1.1-3.8-1.1c-1.2,0-2.2,0.2-3.1,0.7
		c-0.9,0.5-1.4,1.2-1.4,2.1c0,0.9,0.5,1.6,1.4,2c0.9,0.4,2.1,0.8,3.6,1.1c1.4,0.3,3,0.6,4.6,0.9c1.6,0.3,3.2,0.8,4.6,1.5
		c1.4,0.7,2.6,1.6,3.6,2.8c0.9,1.2,1.4,2.8,1.4,4.9c0,0.6-0.1,1.5-0.4,2.6c-0.3,1.2-0.9,2.3-1.9,3.4c-1,1.1-2.4,2.1-4.2,3
		c-1.9,0.8-4.4,1.3-7.5,1.3c-1.1,0-2.4-0.1-3.9-0.4c-1.5-0.2-2.9-0.7-4.3-1.4c-1.4-0.7-2.6-1.8-3.7-3.1c-1.1-1.4-1.7-3.2-1.8-5.5
		h8.6c0,0.8,0.2,1.4,0.5,1.9c0.3,0.5,0.7,1,1.2,1.3c0.5,0.3,1.1,0.6,1.7,0.8c0.6,0.2,1.2,0.2,1.9,0.2c0.6,0,1.1,0,1.7-0.1
		c0.6-0.1,1.1-0.3,1.6-0.5c0.5-0.2,0.9-0.6,1.2-1c0.3-0.4,0.5-0.9,0.5-1.6c0-0.8-0.5-1.5-1.4-1.9c-0.9-0.4-2.1-0.7-3.4-1
		c-1.4-0.3-2.8-0.6-4.4-0.9c-1.6-0.3-3.1-0.8-4.4-1.5c-1.4-0.7-2.5-1.6-3.4-2.9c-0.9-1.2-1.4-2.9-1.4-5c0-1.2,0.2-2.4,0.7-3.6
		c0.5-1.2,1.2-2.2,2.2-3.2c1-0.9,2.3-1.7,4-2.3c1.6-0.6,3.6-0.9,5.9-0.9c4,0,7.2,0.9,9.6,2.6c2.4,1.7,3.8,4.3,4,7.6L27.4,30.9z"/>
	<path d="M59.1,33.1c0-1.1-0.2-2-0.5-2.7c-0.3-0.7-0.7-1.2-1.2-1.6c-0.5-0.4-1-0.6-1.6-0.8c-0.6-0.2-1.2-0.2-1.7-0.2
		c-1.3,0-2.4,0.3-3.2,0.9c-0.8,0.6-1.4,1.4-1.8,2.4c-0.4,1-0.7,2-0.8,3.1c-0.1,1.1-0.2,2.2-0.2,3.2c0,1,0.1,2.1,0.3,3.1
		c0.2,1,0.5,1.9,1,2.8c0.5,0.8,1.1,1.5,1.8,2c0.8,0.5,1.7,0.8,2.8,0.8c1.7,0,2.9-0.5,3.8-1.4c0.9-0.9,1.4-2.1,1.6-3.7l8.5,0.3
		c-0.3,1.7-0.8,3.2-1.5,4.7c-0.7,1.4-1.6,2.7-2.7,3.7c-1.1,1-2.4,1.9-4,2.4c-1.6,0.6-3.4,0.9-5.5,0.9c-2.5,0-4.7-0.4-6.6-1.2
		c-1.9-0.8-3.5-1.9-4.7-3.3c-1.3-1.4-2.2-3.1-2.9-5c-0.6-2-1-4.1-1-6.5c0-2.5,0.3-4.7,1-6.8c0.7-2,1.7-3.8,3-5.2
		c1.3-1.4,2.9-2.6,4.7-3.4c1.8-0.8,3.9-1.2,6.3-1.2c2.3,0,4.3,0.3,6,1c1.7,0.7,3.1,1.6,4.3,2.7c1.1,1.1,2,2.5,2.6,3.9
		c0.6,1.5,1,3,1.1,4.7L59.1,33.1z"/>
	<path d="M70.8,11.8c0-0.6,0.1-1.3,0.4-1.9c0.3-0.6,0.6-1.1,1.1-1.6c0.4-0.5,1-0.9,1.6-1.2c0.6-0.3,1.3-0.5,2-0.5
		c0.6,0,1.3,0.1,1.9,0.4c0.6,0.3,1.1,0.6,1.6,1.1c0.5,0.5,0.9,1,1.1,1.6c0.3,0.6,0.4,1.2,0.4,1.9c0,0.7-0.1,1.3-0.4,1.9
		c-0.3,0.6-0.6,1.1-1.1,1.6c-0.5,0.5-1,0.9-1.6,1.1c-0.6,0.3-1.3,0.4-2,0.4c-0.7,0-1.4-0.1-2-0.5c-0.6-0.3-1.2-0.7-1.6-1.1
		c-0.4-0.5-0.8-1-1.1-1.6C70.9,13,70.8,12.4,70.8,11.8z M71.5,21.3h8.6v30.8h-8.6V21.3z"/>
	<path d="M92.9,39.2c0.1,0.9,0.3,1.8,0.6,2.7c0.3,0.9,0.8,1.6,1.4,2.3c0.6,0.7,1.3,1.2,2.2,1.6
		c0.9,0.4,1.9,0.6,3,0.6c1.3,0,2.5-0.3,3.6-0.9c1.1-0.6,1.9-1.5,2.5-2.7l8.4,0.7c-1,3.2-2.9,5.5-5.5,7.2c-2.7,1.6-5.8,2.4-9.5,2.4
		c-2.3,0-4.5-0.4-6.4-1.1c-1.9-0.8-3.6-1.9-5-3.3c-1.4-1.4-2.5-3.1-3.2-5.1c-0.8-2-1.2-4.2-1.2-6.7c0-2.5,0.4-4.7,1.2-6.8
		c0.8-2,1.9-3.7,3.2-5.2c1.4-1.4,3-2.5,5-3.3c1.9-0.8,4.1-1.1,6.4-1.1c2.3,0,4.4,0.4,6.4,1.1c1.9,0.8,3.6,1.9,5,3.3
		c1.4,1.4,2.5,3.1,3.2,5.2c0.8,2,1.2,4.3,1.2,6.8v2.4H92.9z M106.9,33.7c-0.1-0.8-0.3-1.5-0.6-2.3c-0.3-0.8-0.8-1.5-1.3-2.1
		c-0.6-0.6-1.2-1.2-2-1.6c-0.8-0.4-1.7-0.6-2.8-0.6c-1.1,0-2.1,0.2-2.9,0.5c-0.8,0.4-1.6,0.8-2.2,1.4s-1.1,1.3-1.4,2.1
		c-0.3,0.8-0.6,1.6-0.7,2.5H106.9z"/>
	<path d="M139.1,33.4c0-1.1-0.1-2.1-0.4-2.8c-0.3-0.8-0.7-1.4-1.2-1.8c-0.5-0.5-1.1-0.8-1.7-1
		c-0.6-0.2-1.3-0.3-2-0.3c-1.8,0-3.1,0.7-4.1,2c-1,1.3-1.5,3.1-1.5,5.2v17.5h-8.6V21.3h8.3v4h0.1c1.3-1.9,2.7-3.2,4.2-3.8
		c1.5-0.7,3.2-1,4.9-1c1.8,0,3.4,0.3,4.8,0.8c1.4,0.6,2.5,1.3,3.4,2.3c0.9,1,1.6,2.1,2,3.4c0.4,1.3,0.6,2.7,0.6,4.2v20.9h-8.6V33.4z
		"/>
	<path d="M170.5,33.1c0-1.1-0.2-2-0.5-2.7c-0.3-0.7-0.7-1.2-1.2-1.6c-0.5-0.4-1-0.6-1.6-0.8
		c-0.6-0.2-1.2-0.2-1.7-0.2c-1.3,0-2.4,0.3-3.2,0.9c-0.8,0.6-1.4,1.4-1.8,2.4c-0.4,1-0.7,2-0.8,3.1c-0.1,1.1-0.2,2.2-0.2,3.2
		c0,1,0.1,2.1,0.3,3.1c0.2,1,0.5,1.9,1,2.8c0.5,0.8,1.1,1.5,1.8,2c0.8,0.5,1.7,0.8,2.8,0.8c1.7,0,2.9-0.5,3.8-1.4
		c0.9-0.9,1.4-2.1,1.6-3.7l8.5,0.3c-0.3,1.7-0.8,3.2-1.5,4.7c-0.7,1.4-1.6,2.7-2.7,3.7c-1.1,1-2.4,1.9-4,2.4
		c-1.6,0.6-3.4,0.9-5.5,0.9c-2.5,0-4.7-0.4-6.6-1.2c-1.9-0.8-3.5-1.9-4.7-3.3c-1.3-1.4-2.2-3.1-2.9-5c-0.6-2-1-4.1-1-6.5
		c0-2.5,0.3-4.7,1-6.8c0.7-2,1.7-3.8,3-5.2c1.3-1.4,2.9-2.6,4.7-3.4c1.8-0.8,3.9-1.2,6.3-1.2c2.3,0,4.3,0.3,6,1
		c1.7,0.7,3.1,1.6,4.3,2.7c1.1,1.1,2,2.5,2.6,3.9c0.6,1.5,1,3,1.1,4.7L170.5,33.1z"/>
	<path d="M191.4,39.2c0.1,0.9,0.3,1.8,0.6,2.7c0.3,0.9,0.8,1.6,1.4,2.3c0.6,0.7,1.3,1.2,2.2,1.6
		c0.9,0.4,1.9,0.6,3,0.6c1.3,0,2.5-0.3,3.6-0.9c1.1-0.6,1.9-1.5,2.5-2.7l8.4,0.7c-1,3.2-2.9,5.5-5.5,7.2c-2.7,1.6-5.8,2.4-9.5,2.4
		c-2.3,0-4.5-0.4-6.4-1.1c-1.9-0.8-3.6-1.9-5-3.3c-1.4-1.4-2.5-3.1-3.2-5.1c-0.8-2-1.2-4.2-1.2-6.7c0-2.5,0.4-4.7,1.2-6.8
		c0.8-2,1.9-3.7,3.2-5.2c1.4-1.4,3-2.5,5-3.3c1.9-0.8,4.1-1.1,6.4-1.1c2.3,0,4.4,0.4,6.4,1.1c1.9,0.8,3.6,1.9,5,3.3
		c1.4,1.4,2.5,3.1,3.2,5.2c0.8,2,1.2,4.3,1.2,6.8v2.4H191.4z M205.3,33.7c-0.1-0.8-0.3-1.5-0.6-2.3c-0.3-0.8-0.8-1.5-1.3-2.1
		c-0.6-0.6-1.2-1.2-2-1.6c-0.8-0.4-1.7-0.6-2.8-0.6c-1.1,0-2.1,0.2-2.9,0.5c-0.8,0.4-1.6,0.8-2.2,1.4s-1.1,1.3-1.4,2.1
		c-0.3,0.8-0.6,1.6-0.7,2.5H205.3z"/>
	<path d="M215.9,47.8c0-1.4,0.5-2.6,1.5-3.6c1-1,2.2-1.5,3.6-1.5c1.4,0,2.6,0.5,3.6,1.5c1,1,1.5,2.2,1.5,3.6
		c0,1.4-0.5,2.6-1.5,3.6c-1,1-2.2,1.5-3.6,1.5c-1.4,0-2.6-0.5-3.6-1.5C216.4,50.4,215.9,49.2,215.9,47.8z"/>
	<path d="M249.8,48.1h-0.1c-1.4,1.9-3.1,3.2-5,3.8c-1.9,0.7-3.8,1-5.5,1c-1.2,0-2.4-0.2-3.7-0.5
		c-1.3-0.3-2.5-0.8-3.5-1.6c-1.1-0.7-1.9-1.7-2.6-2.9c-0.7-1.2-1-2.7-1-4.4c0-0.8,0.1-1.8,0.4-2.8c0.2-1,0.8-2,1.7-2.9
		c0.9-0.9,2.2-1.7,4-2.4c1.8-0.7,4.1-1.1,7.1-1.4l8-0.5v-1.4c0-1.8-0.5-3.2-1.6-4.1c-1.1-0.9-2.6-1.4-4.5-1.4
		c-1.8,0-3.2,0.4-4.2,1.2c-1,0.8-1.5,1.9-1.6,3.3h-8.3c0.1-1.2,0.4-2.4,0.9-3.7c0.5-1.3,1.3-2.4,2.4-3.5c1.1-1.1,2.6-1.9,4.4-2.6
		c1.8-0.7,4.1-1,6.8-1c1.9,0,3.7,0.2,5.4,0.6c1.7,0.4,3.2,1,4.4,1.8c1.3,0.8,2.3,1.8,3,3.1c0.7,1.3,1.1,2.8,1.1,4.5v17.9
		c0,0.8,0,1.5,0.1,2.1c0.1,0.6,0.2,1.2,0.3,1.7h-8.3V48.1z M249.4,38.7l-7.2,0.7c-2,0.2-3.4,0.6-4.1,1.2c-0.8,0.6-1.1,1.5-1.1,2.6
		c0,0.7,0.1,1.3,0.5,1.7c0.3,0.5,0.7,0.8,1.2,1.1c0.5,0.3,1,0.5,1.7,0.6c0.7,0.1,1.4,0.2,2.1,0.2c0.7,0,1.4-0.1,2.2-0.3
		c0.8-0.2,1.6-0.5,2.3-0.9s1.3-1,1.8-1.6s0.7-1.4,0.7-2.4V38.7z"/>
	<path d="M261.5,11.8c0-0.6,0.1-1.3,0.4-1.9c0.3-0.6,0.6-1.1,1.1-1.6c0.4-0.5,1-0.9,1.6-1.2c0.6-0.3,1.3-0.5,2-0.5
		c0.6,0,1.3,0.1,1.9,0.4c0.6,0.3,1.1,0.6,1.6,1.1c0.5,0.5,0.9,1,1.1,1.6c0.3,0.6,0.4,1.2,0.4,1.9c0,0.7-0.1,1.3-0.4,1.9
		c-0.3,0.6-0.6,1.1-1.1,1.6c-0.5,0.5-1,0.9-1.6,1.1c-0.6,0.3-1.3,0.4-2,0.4c-0.7,0-1.4-0.1-2-0.5c-0.6-0.3-1.2-0.7-1.6-1.1
		c-0.4-0.5-0.8-1-1.1-1.6C261.6,13,261.5,12.4,261.5,11.8z M262.2,21.3h8.6v30.8h-8.6V21.3z"/>
</g>
</svg>
