<?xml version="1.0" encoding="utf-8"?>
<!-- Generator: Adobe Illustrator 16.0.0, SVG Export Plug-In . SVG Version: 6.00 Build 0)  -->
<!DOCTYPE svg PUBLIC "-//W3C//DTD SVG 1.1//EN" "http://www.w3.org/Graphics/SVG/1.1/DTD/svg11.dtd">
<svg version="1.1" id="Layer_1" xmlns="http://www.w3.org/2000/svg" xmlns:xlink="http://www.w3.org/1999/xlink" x="0px" y="0px"
	 width="326.995px" height="58.028px" viewBox="0 0 326.995 58.028" enable-background="new 0 0 326.995 58.028"
	 xml:space="preserve">
<g>
	<path d="M18.129,23.995c-1.143-2.462-1.714-4.761-1.714-6.894c0-2.412,0.71-4.652,2.133-6.722c1.422-2.069,3.231-3.738,5.427-5.008
		c2.196-1.27,4.475-1.904,6.836-1.904c2.641,0,4.843,0.73,6.608,2.19c1.765,1.46,2.647,3.206,2.647,5.237
		c0,1.523-0.425,2.933-1.276,4.228c-0.851,1.295-1.746,1.942-2.685,1.942c-0.457,0-0.686-0.241-0.686-0.724
		c0-0.177,0.127-0.571,0.381-1.181c0.406-0.99,0.609-1.993,0.609-3.009c0-1.523-0.623-2.761-1.866-3.713
		C33.3,7.484,31.802,7.008,30.05,7.008c-2.818,0-5.453,1.162-7.903,3.485c-2.451,2.323-3.675,4.983-3.675,7.979
		c0,1.346,0.177,2.482,0.533,3.409c0.355,0.927,0.679,1.53,0.971,1.809c0.292,0.28,0.705,0.419,1.238,0.419
		c3.504,0,5.256,1.016,5.256,3.047c0,0.508-0.185,0.99-0.552,1.447c-0.368,0.457-0.908,0.686-1.619,0.686
		c-0.787,0-1.79-0.52-3.009-1.562c-1.295-1.117-2.565-1.676-3.809-1.676c-1.6,0-3.117,0.794-4.551,2.38
		c-1.435,1.587-2.152,3.472-2.152,5.656c0,4.24,2.107,8.246,6.322,12.016c4.214,3.771,9.458,5.656,15.729,5.656
		c5.941,0,11.026-1.479,15.253-4.438c4.228-2.957,6.341-6.493,6.341-10.606c0-2.742-1.042-5.123-3.123-7.141
		c-2.082-2.019-4.9-3.028-8.455-3.028c-2.87,0-5.427,0.787-7.674,2.361c-2.247,1.575-3.371,3.542-3.371,5.903
		c0,1.422,0.406,2.59,1.219,3.504c0.812,0.914,1.65,1.371,2.514,1.371c0.99,0,1.485-0.533,1.485-1.6l-0.038-0.457
		c-0.025-0.33-0.038-0.559-0.038-0.686c0-1.117,0.305-2.038,0.914-2.761c0.609-0.725,1.384-1.086,2.323-1.086
		c0.889,0,1.663,0.312,2.323,0.934c0.66,0.622,0.99,1.491,0.99,2.608c0,1.6-0.552,2.933-1.657,3.999s-2.52,1.6-4.247,1.6
		c-2.057,0-3.828-0.729-5.313-2.189s-2.228-3.257-2.228-5.39c0-3.123,1.308-5.966,3.923-8.531c2.615-2.564,7.363-3.847,14.244-3.847
		c6.17,0,10.651-0.851,13.444-2.552c2.793-1.676,4.189-4.228,4.189-7.655c0-2.031-0.623-3.7-1.866-5.008
		c-1.244-1.308-2.818-1.961-4.723-1.961c-0.939,0-1.644,0.133-2.114,0.4c-0.47,0.267-0.705,0.68-0.705,1.238
		c0,0.356,0.229,0.863,0.686,1.523c0.584,0.838,0.876,1.651,0.876,2.438c0,0.939-0.362,1.765-1.085,2.476
		c-0.724,0.711-1.619,1.066-2.685,1.066c-1.27,0-2.234-0.406-2.895-1.219c-0.661-0.812-0.99-1.765-0.99-2.856
		c0-1.727,0.844-3.275,2.533-4.646c1.688-1.371,3.84-2.057,6.456-2.057c2.691,0,4.932,0.984,6.722,2.952
		c1.79,1.968,2.685,4.336,2.685,7.103c0,2.615-0.768,5.002-2.304,7.16c-1.537,2.158-3.479,3.682-5.827,4.57
		c-2.349,0.889-5.643,1.409-9.883,1.562c4.062,2.87,6.094,6.551,6.094,11.045c0,3.377-1.244,6.64-3.732,9.788
		c-2.489,3.148-5.503,5.484-9.045,7.008s-7.865,2.285-12.968,2.285c-4.139,0-7.49-0.451-10.055-1.352
		c-2.565-0.901-5.008-2.216-7.332-3.942s-4.151-3.84-5.484-6.341s-2-5.187-2-8.056c0-3.504,1.003-6.449,3.009-8.836
		C11.222,26.026,14.193,24.553,18.129,23.995z"/>
	<path d="M133.588,29.098c1.6,1.066,2.704,2.177,3.313,3.332c0.609,1.156,0.914,2.686,0.914,4.59c0,5.281-2.387,9.902-7.16,13.863
		c-4.774,3.961-10.334,5.941-16.682,5.941c-5.917,0-10.658-1.523-14.225-4.57c-3.567-3.047-5.351-7.109-5.351-12.188
		c0-3.656,0.856-6.837,2.57-9.541c1.714-2.704,4.538-5.338,8.473-7.903c-0.379-1.672-0.569-3.129-0.569-4.372
		c0-4.105,1.447-7.633,4.342-10.585s6.347-4.429,10.359-4.429c2.488,0,4.5,0.583,6.037,1.747c1.536,1.164,2.304,2.708,2.304,4.631
		c0,1.468-0.492,2.728-1.475,3.778c-0.983,1.05-2.152,1.575-3.505,1.575c-0.996,0-1.494-0.368-1.494-1.104
		c0-0.253,0.165-0.672,0.495-1.257c0.406-0.736,0.609-1.371,0.609-1.904c0-0.914-0.442-1.676-1.327-2.285s-1.982-0.914-3.296-0.914
		c-2.678,0-5.072,1.181-7.181,3.542c-2.109,2.361-3.164,5.065-3.164,8.112c0,0.533,0.035,1.295,0.104,2.285
		c1.626-0.787,3.405-1.181,5.337-1.181c1.931,0,3.481,0.457,4.65,1.371c1.169,0.914,1.754,2.146,1.754,3.694
		c0,1.499-0.527,2.71-1.581,3.637c-1.055,0.927-2.445,1.39-4.172,1.39c-3.175,0-5.665-1.803-7.468-5.408
		c-3.907,2.992-5.86,6.897-5.86,11.715c0,4.59,1.64,8.552,4.921,11.886c3.28,3.335,7.201,5.002,11.761,5.002
		c4.458,0,8.366-1.501,11.723-4.506c3.356-3.003,5.035-6.507,5.035-10.512c0-1.825-0.635-3.415-1.904-4.771
		c-1.27-1.355-2.755-2.034-4.456-2.034c-1.625,0-3.015,0.568-4.17,1.702c-1.156,1.134-1.733,2.505-1.733,4.11
		c0,0.995,0.286,1.836,0.857,2.524s1.276,1.032,2.114,1.032c0.736,0,1.333-0.406,1.79-1.219c0.285-0.457,0.583-0.686,0.895-0.686
		c0.647,0,0.946,0.378,0.895,1.133c-0.051,0.906-0.451,1.668-1.2,2.284c-0.749,0.616-1.657,0.925-2.723,0.925
		c-1.676,0-3.123-0.749-4.342-2.247s-1.828-3.288-1.828-5.37c0-4.24,3.229-7.731,9.687-10.474l5.454-2.328
		c8.416-3.586,12.624-7.721,12.624-12.401c0-1.501-0.493-2.779-1.479-3.835s-2.183-1.583-3.592-1.583
		c-1.024,0-1.927,0.405-2.708,1.216c-0.781,0.811-1.172,1.73-1.172,2.759c0,0.952,0.584,1.544,1.752,1.776
		c1.396,0.252,2.095,0.743,2.095,1.474c0,0.831-0.348,1.587-1.042,2.267c-0.695,0.68-1.459,1.02-2.292,1.02
		c-1.238,0-2.229-0.457-2.975-1.371s-1.118-2.107-1.118-3.58c0-2.005,0.762-3.764,2.285-5.275c1.523-1.51,3.3-2.266,5.332-2.266
		c2.361,0,4.297,0.832,5.808,2.495c1.51,1.663,2.266,3.777,2.266,6.341c0,3.352-1.295,6.45-3.885,9.293
		c-1.549,1.727-4.507,3.796-8.874,6.208C135.581,27.981,134.73,28.464,133.588,29.098z M108.324,23.728
		c1.012,2.565,2.479,3.847,4.402,3.847c0.733,0,1.359-0.267,1.878-0.8s0.778-1.181,0.778-1.942c0-1.523-0.936-2.285-2.808-2.285
		C111.436,22.547,110.019,22.941,108.324,23.728z"/>
	<path d="M199.894,24.223l0.381,0.876c0.482-0.33,1.295-1.104,2.438-2.323l5.294-5.865c1.396-1.727,2.285-3.021,2.666-3.885
		c0.102-0.253,0.152-0.672,0.152-1.257c-1.066-0.152-1.765-0.419-2.095-0.8c-0.508-0.584-0.762-1.244-0.762-1.98
		c0-1.091,0.387-2.043,1.161-2.856c0.774-0.812,1.708-1.219,2.8-1.219c0.838,0,1.567,0.311,2.19,0.933
		c0.621,0.623,0.933,1.339,0.933,2.152c0,1.346-0.489,2.87-1.466,4.57c-0.979,1.701-2.888,4.063-5.73,7.086
		c-0.659,0.711-1.078,1.181-1.255,1.41l-10.62,11.66c-0.405,0.457-1.091,1.271-2.055,2.438c-3.274,3.861-6.789,7.723-10.544,11.584
		c1.04,0.911,2.03,1.646,2.97,2.202c1.472,0.836,2.994,1.545,4.568,2.127c0.381,0.152,1.624,0.431,3.73,0.836
		c0.938,0.177,2.284,0.266,4.035,0.266c2.03,0,4.586-0.387,7.67-1.161s5.704-1.848,7.862-3.219c2.943-1.879,5.303-3.897,7.08-6.056
		c1.041-1.244,1.752-2.069,2.133-2.476c0.838-1.143,1.523-2.057,2.057-2.742c0.838-1.422,1.574-2.628,2.209-3.618
		c0.152-0.355,0.394-0.863,0.724-1.523c0.33-0.66,0.584-1.219,0.762-1.676l-5.065-3.694c-1.803-1.371-3.339-2.298-4.608-2.78
		c-0.66-0.279-1.346-0.419-2.057-0.419c-1.447,0-2.603,0.419-3.466,1.257s-1.295,1.98-1.295,3.428c0,1.066,0.216,1.93,0.647,2.59
		c0.254,0.381,0.559,0.571,0.914,0.571c0.229,0,0.482-0.025,0.762-0.076c0.203-1.32,0.477-2.171,0.818-2.552
		c0.344-0.381,0.819-0.571,1.429-0.571c0.559,0,1.003,0.19,1.333,0.571c0.406,0.482,0.609,1.092,0.609,1.828
		c0,0.813-0.312,1.504-0.934,2.076c-0.622,0.571-1.44,0.857-2.456,0.857c-1.27,0-2.368-0.508-3.294-1.523
		c-0.928-1.015-1.391-2.336-1.391-3.961c0-1.879,0.812-3.599,2.438-5.161s3.567-2.342,5.827-2.342c1.6,0,3.11,0.28,4.532,0.838
		c1.93,0.711,4.213,2.002,6.851,3.874c2.637,1.872,4.482,3.04,5.537,3.504c1.056,0.464,2.04,0.696,2.956,0.696
		c1.017,0,1.957-0.47,2.821-1.409c0.864-0.939,1.297-2.146,1.297-3.618c0-1.295-0.317-2.304-0.952-3.028s-1.333-1.085-2.095-1.085
		c-0.229,0-0.388,0.044-0.476,0.133c-0.09,0.089-0.146,0.273-0.172,0.552c0.355,0.584,0.533,1.08,0.533,1.485
		c0,0.457-0.165,0.838-0.495,1.143s-0.787,0.457-1.371,0.457c-0.609,0-1.104-0.196-1.485-0.59c-0.381-0.394-0.571-0.908-0.571-1.542
		c0-0.863,0.33-1.605,0.99-2.228c0.66-0.622,1.549-0.933,2.666-0.933c1.244,0,2.367,0.533,3.37,1.6s1.505,2.463,1.505,4.189
		c0,2.082-0.825,3.948-2.476,5.599c-1.65,1.651-3.593,2.476-5.827,2.476c-1.803,0-3.744-0.469-5.824-1.407
		c-1.093,1.853-1.956,3.376-2.591,4.569c-1.423,2.666-3.429,5.548-6.02,8.645c-1.904,2.285-4.494,4.564-7.77,6.837
		s-6.52,3.878-9.73,4.817c-3.213,0.939-6.443,1.409-9.693,1.409c-4.824,0-9.229-1.543-13.216-4.627
		c-3.986-3.086-5.979-7.116-5.979-12.093c0-1.549,0.33-3.428,0.99-5.637s1.663-4.342,3.009-6.398
		c0.533-0.812,1.727-2.031,3.58-3.656c1.396-1.219,2.996-2.209,4.799-2.971c1.346-0.584,2.907-0.876,4.685-0.876
		c1.727,0,3.326,0.356,4.799,1.066C198.383,22.001,199.158,22.877,199.894,24.223z M182.413,45.323
		c0.355-0.355,0.876-0.914,1.562-1.676c1.93-2.158,3.034-3.377,3.313-3.656l6.437-7.084c2.209-2.462,3.517-3.974,3.923-4.532
		c-1.092-0.025-1.854-0.234-2.285-0.628c-0.432-0.394-0.647-1.034-0.647-1.923c0-0.381,0.063-0.736,0.19-1.066
		c0.254-0.686,0.381-1.091,0.381-1.219c0-0.33-0.19-0.634-0.571-0.914c-0.381-0.279-1.143-0.419-2.285-0.419
		c-0.99,0-1.942,0.216-2.856,0.647c-1.346,0.635-2.577,1.511-3.694,2.628c-1.523,1.549-2.742,3.06-3.656,4.532
		c-0.406,0.686-0.965,2.336-1.676,4.951c-0.152,0.635-0.229,1.892-0.229,3.771c0,0.457,0.203,1.574,0.609,3.352
		C181.486,43.533,181.981,44.612,182.413,45.323z"/>
	<path d="M322.005,15.54c1.168,0.406,2.095,1.124,2.78,2.152s1.028,2.266,1.028,3.713c0,1.27-0.254,2.508-0.762,3.713
		c-0.508,1.206-1.162,2.19-1.961,2.952c-0.801,0.762-1.88,1.409-3.238,1.942s-2.641,0.908-3.846,1.124
		c-1.207,0.216-3.181,0.489-5.923,0.819c2.006,0.533,3.428,1.396,4.266,2.59s1.257,2.514,1.257,3.961
		c0,2.844-1.162,5.649-3.484,8.417c-2.324,2.768-5.555,5.174-9.693,7.218c-4.139,2.043-8.62,3.065-13.444,3.065
		c-5.611,0-10.144-1.313-13.597-3.942c-3.453-2.627-5.18-6.227-5.18-10.797c0-2.641,0.553-5.002,1.656-7.084
		c1.105-2.082,2.749-3.84,4.933-5.275c2.184-1.434,5.383-2.862,9.598-4.285c-1.828-0.812-3.117-1.619-3.866-2.418
		s-1.295-1.688-1.637-2.666c-0.344-0.977-0.515-1.936-0.515-2.875c0-3.631,2.057-7.109,6.17-10.436
		c4.113-3.326,8.201-4.989,12.264-4.989c2.92,0,5.332,0.623,7.236,1.866l0.152,0.457l-1.79,8.455l-0.381,0.305l-1.104,0.038
		l-0.343-0.305l-0.076-4.418c-1.752-1.6-4.024-2.399-6.817-2.399c-2.768,0-5.104,0.838-7.008,2.514s-2.856,3.86-2.856,6.551
		c0,2.565,0.901,4.558,2.704,5.979c1.803,1.422,4.037,2.133,6.703,2.133c0.229,0,0.559-0.013,0.99-0.038l0.267,0.381l-1.371,3.504
		c-1.244-0.051-2.247-0.076-3.009-0.076c-2.869,0-5.466,0.501-7.788,1.504c-2.324,1.003-4.184,2.622-5.58,4.856
		c-1.396,2.234-2.095,4.608-2.095,7.122c0,3.555,1.39,6.563,4.171,9.026c2.779,2.463,6.519,3.694,11.216,3.694
		c3.682,0,6.868-0.629,9.56-1.885c2.691-1.258,4.786-2.92,6.284-4.99c1.498-2.068,2.247-4.183,2.247-6.341
		c0-2.107-0.622-3.764-1.866-4.97s-2.844-1.81-4.799-1.81c-1.193,0-2.228,0.241-3.104,0.724c-0.875,0.482-1.484,1.041-1.828,1.676
		c-0.342,0.635-0.653,1.549-0.933,2.742l-0.267,1.028l-0.381,0.267l-1.143-0.152l-0.267-0.305l0.571-7.465
		c0.863-1.167,2.336-2.062,4.418-2.685c2.082-0.622,5.256-1.212,9.521-1.771c3.275-0.432,5.814-0.882,7.617-1.352
		c1.803-0.47,3.174-1.231,4.113-2.285c0.939-1.053,1.409-2.228,1.409-3.523c0-1.625-0.863-2.818-2.59-3.58v-0.495l0.99-0.8
		L322.005,15.54z"/>
</g>
</svg>
