<?xml version="1.0" encoding="utf-8"?>
<!-- Generator: Adobe Illustrator 16.0.0, SVG Export Plug-In . SVG Version: 6.00 Build 0)  -->
<!DOCTYPE svg PUBLIC "-//W3C//DTD SVG 1.1//EN" "http://www.w3.org/Graphics/SVG/1.1/DTD/svg11.dtd">
<svg version="1.1" id="Layer_1" xmlns="http://www.w3.org/2000/svg" xmlns:xlink="http://www.w3.org/1999/xlink" x="0px" y="0px"
	 width="125px" height="64.488px" viewBox="0 0 125 64.488" enable-background="new 0 0 125 64.488" xml:space="preserve">
<g>
	<line fill="none" stroke="#000000" stroke-miterlimit="10" x1="76.515" y1="55.459" x2="76.515" y2="63.959"/>
	<line fill="none" stroke="#000000" stroke-miterlimit="10" x1="28.513" y1="55.421" x2="28.513" y2="63.921"/>
	<g>
		<g>
			<line fill="none" stroke="#000000" stroke-miterlimit="10" x1="32.603" y1="59.709" x2="72.427" y2="59.709"/>
			<g>
				<polygon points="33.332,62.203 29.015,59.709 33.332,57.216 				"/>
			</g>
			<g>
				<polygon points="71.697,62.203 76.015,59.709 71.697,57.216 				"/>
			</g>
		</g>
	</g>
	<rect x="40.985" y="53.609" fill="#FFFFFF" width="22.75" height="11.5"/>
	<g>
		<g>
			<line fill="none" stroke="#000000" stroke-miterlimit="10" x1="31.052" y1="45.951" x2="49.478" y2="27.525"/>
			<g>
				<polygon points="33.331,47.198 28.515,48.488 29.805,43.672 				"/>
			</g>
			<g>
				<polygon points="50.725,29.805 52.015,24.988 47.199,26.278 				"/>
			</g>
		</g>
	</g>
	<rect x="35.515" y="56.018" fill="none" width="33.75" height="8.875"/>
	<text transform="matrix(1 0 0 1 42.4932 62.2275)" font-family="Consolas, monaco, monospace" font-weight="bold" font-size="9">15px</text>
	<g>
		<rect x="0.765" y="1.514" fill="none" width="23.5" height="9"/>
		<text transform="matrix(1 0 0 1 2.6177 7.7236)" font-family="Consolas, monaco, monospace" font-weight="bold" font-size="9">15px</text>
		<rect x="10.932" y="15.431" fill="none" width="7.416" height="7.917"/>
		<text transform="matrix(1 0 0 1 12.165 21.6426)" font-family="Consolas, monaco, monospace" font-weight="bold" font-size="9">2</text>
		
			<line fill="none" stroke="#000000" stroke-width="1.0559" stroke-miterlimit="10" x1="0.485" y1="11.324" x2="24.735" y2="11.324"/>
		<path d="M10.086,22.753H9.222l-1.341-3.961l-0.667,0.261l-0.18-0.604l1.485-0.594l0.954,2.926c0.063,0.27,0.136,0.559,0.181,0.747
			l0.009,0.009c0.036-0.188,0.081-0.504,0.135-0.801l1.549-6.752h0.747L10.086,22.753z"/>
		<g>
			<rect x="11.385" y="13.984" width="6.375" height="0.666"/>
		</g>
	</g>
	<path fill="none" stroke="#000000" stroke-linecap="round" stroke-linejoin="round" stroke-miterlimit="10" d="M12.181,25.473
		c6.667,12.85,16.334-3.422,26.615,9.047"/>
</g>
</svg>
