<?xml version="1.0" encoding="utf-8"?>
<!-- Generator: Adobe Illustrator 16.0.0, SVG Export Plug-In . SVG Version: 6.00 Build 0)  -->
<!DOCTYPE svg PUBLIC "-//W3C//DTD SVG 1.1//EN" "http://www.w3.org/Graphics/SVG/1.1/DTD/svg11.dtd">
<svg version="1.1" id="Layer_1" xmlns="http://www.w3.org/2000/svg" xmlns:xlink="http://www.w3.org/1999/xlink" x="0px" y="0px"
	 width="115.2px" height="83px" viewBox="0 0 115.2 83" enable-background="new 0 0 115.2 83" xml:space="preserve">
<g>
	<path d="M2.625,1.325v0.355C1.741,1.854,1.299,2.348,1.299,3.164c0,0.287,0.086,0.431,0.26,0.431c0.037,0,0.082-0.007,0.137-0.021
		C1.8,3.542,1.891,3.526,1.969,3.526c0.223,0,0.401,0.071,0.533,0.212S2.7,4.039,2.7,4.217S2.633,4.553,2.499,4.692
		S2.19,4.9,1.976,4.9c-0.292,0-0.546-0.137-0.762-0.41S0.889,3.852,0.889,3.396c0-0.529,0.151-0.979,0.455-1.35
		S2.074,1.435,2.625,1.325z M5.722,1.325v0.355C4.837,1.854,4.396,2.348,4.396,3.164c0,0.287,0.084,0.431,0.253,0.431
		c0.037,0,0.082-0.007,0.137-0.021c0.109-0.032,0.201-0.048,0.273-0.048c0.223,0,0.401,0.071,0.533,0.212S5.79,4.039,5.79,4.217
		S5.723,4.553,5.588,4.692S5.28,4.9,5.065,4.9C4.769,4.9,4.514,4.763,4.3,4.487s-0.321-0.639-0.321-1.09
		c0-0.529,0.153-0.979,0.458-1.35S5.17,1.435,5.722,1.325z"/>
	<path d="M7.089,3.608H6.774L6.822,1.38h8.996l0.048,2.229h-0.294c-0.105-0.611-0.249-1.052-0.431-1.323s-0.378-0.438-0.588-0.499
		s-0.567-0.092-1.073-0.092h-1.49v6.542c0,0.725,0.017,1.201,0.051,1.429s0.126,0.396,0.277,0.506s0.433,0.164,0.848,0.164h0.451
		v0.314H8.996v-0.314h0.479c0.396,0,0.671-0.05,0.824-0.15s0.25-0.256,0.294-0.468s0.065-0.705,0.065-1.48V1.694H9.283
		c-0.597,0-0.998,0.028-1.203,0.085S7.683,2.009,7.502,2.296S7.185,3.021,7.089,3.608z"/>
	<path d="M18.607,5.974c0.273-0.383,0.58-0.67,0.919-0.861s0.712-0.287,1.118-0.287c0.46,0,0.842,0.096,1.145,0.287
		s0.5,0.427,0.591,0.708s0.137,0.735,0.137,1.364v1.545c0,0.656,0.013,1.055,0.038,1.196s0.099,0.245,0.222,0.311
		s0.351,0.099,0.684,0.099v0.314h-2.892v-0.314h0.13c0.333,0,0.548-0.048,0.646-0.144s0.155-0.208,0.171-0.338
		s0.024-0.505,0.024-1.125V7.047c0-0.465-0.027-0.809-0.082-1.032s-0.184-0.408-0.386-0.554s-0.457-0.219-0.762-0.219
		c-0.355,0-0.674,0.104-0.957,0.311s-0.531,0.519-0.745,0.933v2.242c0,0.629,0.01,1.016,0.031,1.162s0.09,0.256,0.208,0.332
		s0.335,0.113,0.649,0.113v0.314h-2.844v-0.314h0.144c0.328,0,0.541-0.047,0.639-0.14S17.59,9.99,17.606,9.86
		s0.024-0.507,0.024-1.131V3.15c0-0.565-0.054-0.923-0.161-1.073S17.106,1.852,16.7,1.852V1.537c0.707,0,1.294-0.096,1.764-0.287
		h0.144V5.974z"/>
	<path d="M29.354,6.944H25.45c-0.018,0.269-0.027,0.469-0.027,0.602c0,0.984,0.154,1.724,0.461,2.218s0.767,0.742,1.377,0.742
		c0.83,0,1.417-0.372,1.764-1.114h0.328c-0.146,0.465-0.435,0.828-0.868,1.09s-0.905,0.393-1.415,0.393
		c-0.474,0-0.922-0.12-1.343-0.359s-0.767-0.578-1.036-1.015s-0.403-0.968-0.403-1.593c0-0.884,0.26-1.619,0.779-2.205
		s1.169-0.878,1.948-0.878c0.734,0,1.301,0.223,1.702,0.67S29.331,6.425,29.354,6.944z M28.157,6.671
		c0.014-0.105,0.021-0.198,0.021-0.28c0-0.401-0.117-0.712-0.352-0.933s-0.523-0.332-0.865-0.332c-0.83,0-1.324,0.515-1.483,1.545
		H28.157z"/>
	<path d="M39.637,7.84c0-0.857,0.287-1.573,0.861-2.15s1.281-0.865,2.119-0.865c0.843,0,1.552,0.29,2.126,0.868
		s0.861,1.294,0.861,2.146c0,0.943-0.292,1.685-0.875,2.225s-1.288,0.81-2.112,0.81s-1.528-0.274-2.109-0.824
		S39.637,8.765,39.637,7.84z M40.772,7.874c0,0.994,0.162,1.689,0.485,2.088s0.777,0.598,1.36,0.598
		c0.597,0,1.054-0.199,1.371-0.598s0.475-1.095,0.475-2.088c0-0.984-0.157-1.686-0.472-2.105S43.219,5.14,42.618,5.14
		c-0.597,0-1.054,0.208-1.371,0.625S40.772,6.885,40.772,7.874z"/>
	<path d="M48.045,4.825h0.185c0.105,0.283,0.164,0.667,0.178,1.155c0.328-0.387,0.672-0.677,1.032-0.868s0.736-0.287,1.128-0.287
		c0.447,0,0.812,0.093,1.097,0.28s0.468,0.416,0.55,0.687s0.123,0.667,0.123,1.186v1.75c0,0.647,0.011,1.042,0.034,1.183
		s0.095,0.247,0.215,0.318s0.343,0.106,0.667,0.106v0.314H50.39v-0.314h0.13c0.328,0,0.542-0.048,0.643-0.144
		s0.157-0.208,0.171-0.335s0.021-0.503,0.021-1.128V6.924c0-0.442-0.021-0.758-0.065-0.947s-0.16-0.356-0.349-0.502
		s-0.43-0.219-0.721-0.219c-0.333,0-0.65,0.099-0.954,0.297s-0.589,0.496-0.858,0.892v2.283c0,0.647,0.013,1.042,0.038,1.183
		s0.098,0.247,0.219,0.318s0.345,0.106,0.673,0.106v0.314h-2.83v-0.314c0.314,0,0.533-0.032,0.656-0.096s0.199-0.161,0.229-0.291
		s0.044-0.537,0.044-1.22V7.061c0-0.652-0.013-1.047-0.038-1.186s-0.098-0.244-0.219-0.314s-0.345-0.106-0.673-0.106V5.14
		C47.009,5.085,47.521,4.98,48.045,4.825z"/>
	<path d="M55.702,1.25v7.479c0,0.597,0.008,0.973,0.024,1.128s0.081,0.273,0.195,0.355s0.317,0.123,0.608,0.123h0.164v0.314h-2.994
		v-0.314h0.191c0.273,0,0.468-0.038,0.584-0.113s0.186-0.181,0.208-0.318s0.034-0.529,0.034-1.176V3.191
		c0-0.588-0.052-0.958-0.157-1.111s-0.36-0.229-0.766-0.229V1.537c0.278,0,0.605-0.032,0.981-0.096s0.635-0.127,0.776-0.191H55.702z
		"/>
	<path d="M60.541,9.59l1.299-3.11c0.188-0.456,0.281-0.708,0.281-0.759c0-0.228-0.254-0.346-0.76-0.355V5.051h1.969v0.314
		c-0.305,0.014-0.527,0.095-0.67,0.243c-0.141,0.148-0.316,0.475-0.525,0.981l-2.496,6.022c-0.236,0.574-0.446,0.965-0.629,1.172
		c-0.182,0.208-0.382,0.311-0.601,0.311c-0.296,0-0.444-0.134-0.444-0.403c0-0.31,0.237-0.572,0.711-0.786
		c0.278-0.123,0.463-0.228,0.557-0.314s0.186-0.244,0.277-0.472l0.533-1.333l-2.106-4.512c-0.187-0.396-0.342-0.647-0.465-0.752
		s-0.333-0.157-0.629-0.157V5.051h2.571v0.314c-0.452,0.014-0.677,0.107-0.677,0.28c0,0.068,0.089,0.292,0.267,0.67L60.541,9.59z"/>
	<path d="M79.281,10.868h-0.308l-1.668-4.443l-1.702,4.443h-0.301l-1.709-4.443c-0.196-0.506-0.342-0.809-0.438-0.909
		s-0.287-0.15-0.574-0.15V5.051h2.557v0.314c-0.287,0-0.483,0.026-0.588,0.079s-0.157,0.143-0.157,0.27
		c0,0.091,0.089,0.358,0.267,0.8l1.135,3.001l1.736-4.464h0.267l1.682,4.464l1.23-3.179c0.132-0.337,0.198-0.54,0.198-0.608
		c0-0.223-0.23-0.344-0.69-0.362V5.051h1.818v0.314c-0.219,0.004-0.391,0.047-0.516,0.126c-0.126,0.08-0.241,0.259-0.346,0.537
		l-0.15,0.396L79.281,10.868z"/>
	<path d="M88.209,9.624h0.253c-0.041,0.779-0.424,1.169-1.148,1.169c-0.31,0-0.555-0.082-0.735-0.246
		c-0.18-0.164-0.297-0.408-0.352-0.731c-0.456,0.324-0.871,0.567-1.248,0.731c-0.375,0.164-0.712,0.246-1.008,0.246
		c-0.378,0-0.704-0.109-0.978-0.328s-0.41-0.508-0.41-0.868c0-0.469,0.229-0.879,0.687-1.23c0.459-0.351,1.091-0.693,1.897-1.025
		l1.06-0.431V6.637c0-0.387-0.025-0.667-0.075-0.841s-0.18-0.328-0.39-0.465s-0.485-0.205-0.827-0.205
		c-0.684,0-1.064,0.228-1.142,0.684c-0.073,0.465-0.265,0.697-0.574,0.697c-0.278,0-0.417-0.132-0.417-0.396
		c0-0.26,0.185-0.539,0.554-0.837s0.943-0.448,1.723-0.448c0.579,0,1.027,0.091,1.347,0.273s0.53,0.39,0.632,0.622
		c0.104,0.232,0.154,0.588,0.154,1.066V9.05c0,0.529,0.027,0.868,0.082,1.019s0.173,0.226,0.355,0.226
		C87.949,10.294,88.136,10.071,88.209,9.624z M86.227,7.231l-0.745,0.301c-1.176,0.479-1.764,1.08-1.764,1.805
		c0,0.287,0.075,0.519,0.226,0.694s0.347,0.263,0.588,0.263c0.214,0,0.463-0.071,0.745-0.212s0.6-0.353,0.95-0.636V7.231z"/>
	<path d="M92.099,9.59l1.299-3.11c0.187-0.456,0.28-0.708,0.28-0.759c0-0.228-0.253-0.346-0.759-0.355V5.051h1.969v0.314
		c-0.306,0.014-0.528,0.095-0.67,0.243s-0.316,0.475-0.526,0.981l-2.495,6.022c-0.237,0.574-0.446,0.965-0.629,1.172
		s-0.383,0.311-0.602,0.311c-0.296,0-0.444-0.134-0.444-0.403c0-0.31,0.237-0.572,0.711-0.786c0.278-0.123,0.464-0.228,0.557-0.314
		c0.094-0.086,0.187-0.244,0.277-0.472l0.533-1.333l-2.105-4.512c-0.187-0.396-0.342-0.647-0.465-0.752S88.696,5.365,88.4,5.365
		V5.051h2.57v0.314c-0.451,0.014-0.677,0.107-0.677,0.28c0,0.068,0.089,0.292,0.267,0.67L92.099,9.59z"/>
	<path d="M107.961,5.365h-1.688v3.384c0,0.52,0.022,0.869,0.068,1.049s0.143,0.325,0.29,0.434c0.148,0.109,0.307,0.164,0.476,0.164
		c0.328,0,0.613-0.187,0.854-0.561l0.219,0.13c-0.142,0.301-0.35,0.527-0.625,0.68c-0.276,0.153-0.556,0.229-0.838,0.229
		c-0.328,0-0.616-0.097-0.865-0.291c-0.248-0.194-0.402-0.42-0.465-0.68c-0.061-0.26-0.092-0.715-0.092-1.367V5.365h-0.813V5.051
		c0.374-0.009,0.709-0.167,1.005-0.472s0.485-0.734,0.567-1.285h0.219v1.757h1.688V5.365z"/>
	<path d="M108.72,7.84c0-0.857,0.287-1.573,0.861-2.15s1.28-0.865,2.119-0.865c0.843,0,1.552,0.29,2.126,0.868
		s0.861,1.294,0.861,2.146c0,0.943-0.292,1.685-0.875,2.225s-1.287,0.81-2.112,0.81s-1.527-0.274-2.109-0.824
		C109.011,9.502,108.72,8.765,108.72,7.84z M109.854,7.874c0,0.994,0.162,1.689,0.485,2.088s0.777,0.598,1.36,0.598
		c0.597,0,1.054-0.199,1.371-0.598c0.316-0.399,0.475-1.095,0.475-2.088c0-0.984-0.157-1.686-0.472-2.105S112.302,5.14,111.7,5.14
		c-0.597,0-1.054,0.208-1.371,0.625C110.013,6.182,109.854,6.885,109.854,7.874z"/>
	<path d="M4.799,28.543c0.387-0.438,0.779-0.656,1.176-0.656c0.219,0,0.389,0.059,0.509,0.178s0.181,0.249,0.181,0.39
		c0,0.301-0.137,0.451-0.41,0.451c-0.15,0-0.28-0.093-0.39-0.28c-0.1-0.173-0.205-0.26-0.314-0.26c-0.173,0-0.365,0.119-0.574,0.355
		c0.237,0.374,0.355,0.77,0.355,1.189c0,0.547-0.196,1.03-0.588,1.449c-0.392,0.424-1.053,0.652-1.982,0.684
		c-0.966,0.032-1.449,0.228-1.449,0.588c0,0.168,0.109,0.287,0.328,0.355c0.214,0.073,0.666,0.127,1.354,0.164
		c0.752,0.037,1.331,0.106,1.736,0.208s0.729,0.309,0.971,0.619s0.362,0.679,0.362,1.107c0,0.602-0.246,1.087-0.738,1.456
		s-1.201,0.554-2.126,0.554c-0.848,0-1.527-0.164-2.037-0.492s-0.766-0.743-0.766-1.244c0-0.278,0.073-0.506,0.219-0.684
		s0.353-0.267,0.622-0.267c0.073,0,0.139,0.011,0.198,0.034c-0.283,0.31-0.424,0.638-0.424,0.984c0,0.401,0.188,0.732,0.564,0.995
		s0.938,0.393,1.685,0.393c0.666,0,1.184-0.133,1.555-0.4s0.557-0.607,0.557-1.022c0-0.456-0.167-0.777-0.499-0.964
		c-0.333-0.182-0.925-0.292-1.777-0.328c-0.98-0.041-1.616-0.162-1.907-0.362c-0.292-0.196-0.438-0.449-0.438-0.759
		c0-0.597,0.417-0.973,1.251-1.128c-0.433-0.255-0.759-0.547-0.978-0.875s-0.328-0.695-0.328-1.101c0-0.57,0.225-1.054,0.673-1.453
		s0.981-0.598,1.596-0.598C3.728,27.825,4.338,28.064,4.799,28.543z M1.723,30.033c0,0.588,0.121,1.019,0.362,1.292
		s0.549,0.41,0.923,0.41c0.346,0,0.644-0.136,0.892-0.407s0.373-0.742,0.373-1.412c0-0.674-0.132-1.139-0.396-1.395
		S3.313,28.14,2.98,28.14c-0.419,0-0.734,0.157-0.943,0.472S1.723,29.4,1.723,30.033z"/>
	<path d="M12.154,29.944H8.251c-0.018,0.269-0.027,0.469-0.027,0.602c0,0.984,0.154,1.724,0.461,2.218s0.767,0.742,1.377,0.742
		c0.83,0,1.417-0.372,1.764-1.114h0.328c-0.146,0.465-0.435,0.828-0.868,1.09s-0.905,0.393-1.415,0.393
		c-0.474,0-0.922-0.12-1.343-0.359s-0.767-0.578-1.036-1.015s-0.403-0.968-0.403-1.593c0-0.884,0.26-1.619,0.779-2.205
		s1.169-0.878,1.948-0.878c0.734,0,1.301,0.223,1.702,0.67S12.131,29.425,12.154,29.944z M10.958,29.671
		c0.014-0.105,0.021-0.198,0.021-0.28c0-0.401-0.117-0.712-0.352-0.933s-0.523-0.332-0.865-0.332c-0.83,0-1.324,0.515-1.483,1.545
		H10.958z"/>
	<path d="M16.529,28.365h-1.688v3.384c0,0.52,0.023,0.869,0.068,1.049s0.143,0.325,0.291,0.434s0.307,0.164,0.475,0.164
		c0.328,0,0.613-0.187,0.854-0.561l0.219,0.13c-0.141,0.301-0.35,0.527-0.625,0.68s-0.555,0.229-0.837,0.229
		c-0.328,0-0.616-0.097-0.865-0.291s-0.403-0.42-0.465-0.68s-0.092-0.715-0.092-1.367v-3.172H13.05v-0.314
		c0.374-0.009,0.708-0.167,1.005-0.472s0.485-0.734,0.567-1.285h0.219v1.757h1.688V28.365z"/>
	<path d="M40.152,29.254c0.155-0.406,0.407-0.745,0.755-1.019s0.689-0.41,1.022-0.41c0.301,0,0.538,0.093,0.711,0.28
		s0.26,0.378,0.26,0.574c0,0.132-0.044,0.246-0.133,0.342s-0.197,0.144-0.325,0.144c-0.228,0-0.401-0.168-0.52-0.506
		c-0.082-0.228-0.205-0.342-0.369-0.342c-0.196,0-0.431,0.133-0.704,0.4s-0.449,0.543-0.526,0.831s-0.116,0.681-0.116,1.183v0.998
		c0,0.597,0.008,0.973,0.024,1.128s0.081,0.273,0.195,0.355s0.317,0.123,0.608,0.123h0.191v0.314h-2.974v-0.314h0.144
		c0.273,0,0.468-0.038,0.584-0.113s0.186-0.181,0.208-0.318s0.034-0.529,0.034-1.176v-1.579c0-0.602-0.008-0.979-0.024-1.131
		s-0.081-0.271-0.195-0.355s-0.317-0.126-0.608-0.126h-0.144v-0.308c0.428-0.05,0.989-0.185,1.682-0.403
		C40.066,28.185,40.139,28.662,40.152,29.254z"/>
	<path d="M45.184,27.825v3.903c0,0.597,0.009,0.973,0.027,1.128s0.084,0.273,0.198,0.355s0.317,0.123,0.608,0.123h0.144v0.314
		h-3.015v-0.314h0.232c0.324,0,0.534-0.047,0.632-0.14s0.155-0.205,0.171-0.335s0.024-0.507,0.024-1.131v-1.695
		c0-0.656-0.031-1.057-0.092-1.203s-0.144-0.237-0.246-0.273s-0.281-0.055-0.537-0.055h-0.185v-0.314
		c0.811-0.082,1.44-0.203,1.887-0.362H45.184z M43.864,24.968c0-0.196,0.069-0.365,0.208-0.506s0.307-0.212,0.502-0.212
		s0.362,0.071,0.499,0.212s0.205,0.31,0.205,0.506c0,0.201-0.068,0.372-0.205,0.513s-0.303,0.212-0.499,0.212
		s-0.363-0.071-0.502-0.212S43.864,25.168,43.864,24.968z"/>
	<path d="M51.685,28.646v-2.188c0-0.597-0.008-0.973-0.024-1.128s-0.081-0.273-0.195-0.355s-0.317-0.123-0.608-0.123h-0.144v-0.314
		c0.551-0.014,1.155-0.109,1.812-0.287h0.144v7.526c0,0.652,0.011,1.048,0.034,1.189s0.095,0.246,0.215,0.314
		s0.345,0.103,0.673,0.103v0.314c-0.661,0.014-1.249,0.073-1.764,0.178c-0.055-0.214-0.082-0.551-0.082-1.012
		c-0.337,0.337-0.685,0.59-1.042,0.759s-0.728,0.253-1.111,0.253c-0.725,0-1.35-0.292-1.876-0.875s-0.79-1.29-0.79-2.119
		c0-0.912,0.269-1.648,0.807-2.211s1.178-0.844,1.921-0.844c0.378,0,0.736,0.068,1.073,0.205S51.384,28.372,51.685,28.646z
		 M51.685,29.042c-0.301-0.26-0.603-0.455-0.906-0.584s-0.607-0.195-0.913-0.195c-0.515,0-0.944,0.198-1.289,0.595
		s-0.516,1.043-0.516,1.941c0,0.912,0.177,1.583,0.53,2.017s0.79,0.649,1.309,0.649c0.346,0,0.667-0.082,0.964-0.246
		s0.57-0.41,0.82-0.738V29.042z"/>
	<path d="M75.294,30.84c0-0.857,0.287-1.573,0.861-2.15s1.28-0.865,2.119-0.865c0.843,0,1.552,0.29,2.126,0.868
		s0.861,1.294,0.861,2.146c0,0.943-0.292,1.685-0.875,2.225s-1.287,0.81-2.112,0.81s-1.527-0.274-2.109-0.824
		C75.585,32.502,75.294,31.765,75.294,30.84z M76.429,30.874c0,0.994,0.162,1.689,0.485,2.088s0.777,0.598,1.36,0.598
		c0.597,0,1.054-0.199,1.371-0.598c0.316-0.399,0.475-1.095,0.475-2.088c0-0.984-0.157-1.686-0.472-2.105s-0.772-0.629-1.374-0.629
		c-0.597,0-1.054,0.208-1.371,0.625C76.587,29.182,76.429,29.885,76.429,30.874z"/>
	<path d="M85.179,28.051v0.314H84.01v3.363c0,0.597,0.008,0.973,0.024,1.128c0.016,0.155,0.08,0.273,0.194,0.355
		s0.316,0.123,0.608,0.123h0.294v0.314h-3.028v-0.314c0.314,0,0.532-0.032,0.652-0.096c0.121-0.064,0.196-0.161,0.227-0.291
		c0.029-0.13,0.044-0.537,0.044-1.22v-3.363h-1.046v-0.314h1.046v-0.506c0-0.565,0.022-1.002,0.068-1.312s0.175-0.63,0.386-0.96
		c0.213-0.331,0.479-0.584,0.801-0.762c0.32-0.178,0.702-0.267,1.145-0.267c0.538,0,0.969,0.112,1.292,0.335
		s0.485,0.451,0.485,0.684c0,0.132-0.046,0.242-0.137,0.328s-0.198,0.13-0.321,0.13c-0.241,0-0.463-0.187-0.663-0.561
		c-0.224-0.41-0.513-0.615-0.868-0.615c-0.287,0-0.539,0.104-0.755,0.311c-0.217,0.208-0.346,0.466-0.387,0.776
		s-0.062,0.975-0.062,1.996v0.424H85.179z"/>
	<path d="M114.804,32.624h0.253c-0.041,0.779-0.424,1.169-1.148,1.169c-0.31,0-0.555-0.082-0.735-0.246
		c-0.18-0.164-0.297-0.408-0.352-0.731c-0.456,0.324-0.871,0.567-1.248,0.731c-0.375,0.164-0.712,0.246-1.008,0.246
		c-0.378,0-0.704-0.109-0.978-0.328s-0.41-0.508-0.41-0.868c0-0.469,0.229-0.879,0.687-1.23c0.459-0.351,1.091-0.693,1.897-1.025
		l1.06-0.431v-0.273c0-0.387-0.025-0.667-0.075-0.841s-0.18-0.328-0.39-0.465s-0.485-0.205-0.827-0.205
		c-0.684,0-1.064,0.228-1.142,0.684c-0.073,0.465-0.265,0.697-0.574,0.697c-0.278,0-0.417-0.132-0.417-0.396
		c0-0.26,0.185-0.539,0.554-0.837s0.943-0.448,1.723-0.448c0.579,0,1.027,0.091,1.347,0.273s0.53,0.39,0.632,0.622
		c0.104,0.232,0.154,0.588,0.154,1.066v2.263c0,0.529,0.027,0.868,0.082,1.019s0.173,0.226,0.355,0.226
		C114.544,33.294,114.73,33.071,114.804,32.624z M112.821,30.231l-0.745,0.301c-1.176,0.479-1.764,1.08-1.764,1.805
		c0,0.287,0.075,0.519,0.226,0.694s0.347,0.263,0.588,0.263c0.214,0,0.463-0.071,0.745-0.212s0.6-0.353,0.95-0.636V30.231z"/>
	<path d="M3.842,51.365H2.153v3.384c0,0.52,0.023,0.869,0.068,1.049c0.045,0.181,0.143,0.325,0.291,0.435s0.307,0.164,0.475,0.164
		c0.328,0,0.613-0.187,0.854-0.561l0.219,0.13c-0.141,0.301-0.35,0.527-0.625,0.68c-0.276,0.153-0.555,0.229-0.837,0.229
		c-0.328,0-0.616-0.097-0.865-0.29c-0.249-0.194-0.403-0.421-0.465-0.681s-0.092-0.716-0.092-1.367v-3.172H0.362v-0.314
		c0.374-0.009,0.708-0.166,1.005-0.472s0.485-0.733,0.567-1.285h0.219v1.757h1.688V51.365z"/>
	<path d="M9.673,52.944H5.77c-0.018,0.269-0.027,0.47-0.027,0.602c0,0.984,0.154,1.724,0.461,2.219
		c0.308,0.494,0.767,0.741,1.377,0.741c0.83,0,1.417-0.371,1.764-1.114h0.328c-0.146,0.465-0.435,0.828-0.868,1.09
		C8.372,56.744,7.9,56.875,7.39,56.875c-0.474,0-0.922-0.12-1.343-0.358c-0.421-0.24-0.767-0.578-1.036-1.016
		s-0.403-0.969-0.403-1.593c0-0.884,0.26-1.619,0.779-2.204c0.52-0.586,1.169-0.879,1.948-0.879c0.734,0,1.301,0.224,1.702,0.67
		S9.65,52.425,9.673,52.944z M8.477,52.671c0.014-0.104,0.021-0.198,0.021-0.28c0-0.401-0.117-0.712-0.352-0.933
		c-0.235-0.222-0.523-0.332-0.865-0.332c-0.83,0-1.324,0.515-1.483,1.545H8.477z"/>
	<path d="M12.168,50.825h0.068c0.132,0.306,0.198,0.697,0.198,1.176c0.305-0.392,0.635-0.686,0.988-0.882s0.732-0.294,1.138-0.294
		c0.46,0,0.834,0.104,1.121,0.314s0.488,0.524,0.602,0.943c0.346-0.419,0.702-0.733,1.066-0.943s0.736-0.314,1.114-0.314
		c0.433,0,0.8,0.101,1.101,0.301s0.483,0.429,0.547,0.684s0.096,0.668,0.096,1.237v1.682c0,0.651,0.013,1.048,0.038,1.189
		s0.098,0.246,0.219,0.314s0.345,0.103,0.673,0.103v0.314h-2.796v-0.314c0.296,0,0.505-0.033,0.625-0.1
		c0.121-0.065,0.195-0.166,0.222-0.301c0.027-0.134,0.041-0.536,0.041-1.206v-1.866c0-0.378-0.021-0.663-0.065-0.854
		s-0.156-0.355-0.338-0.492s-0.419-0.205-0.711-0.205c-0.296,0-0.594,0.101-0.892,0.301s-0.598,0.504-0.899,0.909v2.208
		c0,0.597,0.008,0.972,0.024,1.124c0.016,0.153,0.08,0.271,0.191,0.355c0.112,0.085,0.311,0.127,0.598,0.127v0.314h-2.707v-0.314
		c0.305,0,0.519-0.032,0.639-0.096s0.196-0.162,0.226-0.294s0.044-0.538,0.044-1.217v-1.552c0-0.492-0.02-0.849-0.058-1.07
		c-0.039-0.221-0.156-0.41-0.352-0.566c-0.196-0.158-0.44-0.236-0.731-0.236c-0.283,0-0.571,0.091-0.865,0.273
		s-0.594,0.456-0.899,0.82v2.331c0,0.615,0.009,0.998,0.027,1.148s0.086,0.265,0.205,0.342s0.331,0.116,0.636,0.116v0.314h-2.741
		v-0.314c0.301,0,0.512-0.033,0.632-0.1c0.121-0.065,0.195-0.165,0.222-0.297s0.041-0.535,0.041-1.21v-1.675
		c0-0.638-0.01-1.029-0.031-1.172c-0.021-0.145-0.091-0.252-0.212-0.325s-0.338-0.109-0.653-0.109v-0.314
		C11.208,51.069,11.744,50.967,12.168,50.825z"/>
	<path d="M23.167,50.825h0.185c0.078,0.255,0.116,0.562,0.116,0.923c0.292-0.31,0.605-0.541,0.94-0.694
		c0.335-0.152,0.689-0.229,1.063-0.229c0.775,0,1.419,0.272,1.935,0.816c0.515,0.545,0.772,1.264,0.772,2.157
		c0,0.875-0.259,1.606-0.776,2.194s-1.197,0.882-2.041,0.882c-0.346,0-0.678-0.069-0.995-0.208c-0.317-0.14-0.616-0.346-0.899-0.619
		v2.126c0,0.647,0.013,1.041,0.038,1.183s0.097,0.247,0.215,0.318c0.119,0.07,0.339,0.105,0.663,0.105v0.314h-2.926V59.78h0.205
		c0.324,0,0.534-0.047,0.632-0.141c0.098-0.093,0.155-0.205,0.171-0.334c0.016-0.131,0.024-0.508,0.024-1.132v-5.086
		c0-0.597-0.008-0.973-0.024-1.128s-0.081-0.273-0.195-0.355s-0.317-0.123-0.608-0.123h-0.205v-0.314
		C21.909,51.121,22.479,51.008,23.167,50.825z M23.468,55.597c0.246,0.301,0.507,0.527,0.783,0.68
		c0.276,0.153,0.566,0.229,0.872,0.229c0.515,0,0.964-0.221,1.347-0.663s0.574-1.146,0.574-2.112c0-0.839-0.185-1.465-0.554-1.88
		s-0.809-0.622-1.319-0.622c-0.314,0-0.613,0.08-0.896,0.239s-0.551,0.401-0.807,0.725V55.597z"/>
	<path d="M32.573,51.365h-1.688v3.384c0,0.52,0.023,0.869,0.068,1.049c0.045,0.181,0.143,0.325,0.291,0.435s0.307,0.164,0.475,0.164
		c0.328,0,0.613-0.187,0.854-0.561l0.219,0.13c-0.141,0.301-0.35,0.527-0.625,0.68c-0.276,0.153-0.555,0.229-0.837,0.229
		c-0.328,0-0.616-0.097-0.865-0.29c-0.249-0.194-0.403-0.421-0.465-0.681s-0.092-0.716-0.092-1.367v-3.172h-0.813v-0.314
		c0.374-0.009,0.708-0.166,1.005-0.472s0.485-0.733,0.567-1.285h0.219v1.757h1.688V51.365z"/>
	<path d="M38.979,55.624h0.253c-0.041,0.779-0.424,1.169-1.148,1.169c-0.31,0-0.555-0.082-0.735-0.246s-0.297-0.408-0.352-0.731
		c-0.456,0.323-0.872,0.567-1.248,0.731s-0.712,0.246-1.008,0.246c-0.378,0-0.704-0.109-0.978-0.328s-0.41-0.508-0.41-0.868
		c0-0.47,0.229-0.88,0.687-1.23s1.09-0.692,1.897-1.025l1.06-0.431v-0.273c0-0.388-0.025-0.668-0.075-0.841s-0.18-0.328-0.39-0.465
		s-0.485-0.205-0.827-0.205c-0.684,0-1.064,0.228-1.142,0.684c-0.073,0.465-0.264,0.697-0.574,0.697
		c-0.278,0-0.417-0.132-0.417-0.396c0-0.26,0.185-0.539,0.554-0.838c0.369-0.298,0.943-0.447,1.723-0.447
		c0.579,0,1.028,0.091,1.347,0.273s0.53,0.39,0.632,0.622s0.154,0.588,0.154,1.066v2.263c0,0.528,0.027,0.868,0.082,1.019
		s0.173,0.226,0.355,0.226C38.719,56.294,38.906,56.07,38.979,55.624z M36.996,53.231l-0.745,0.301
		c-1.176,0.479-1.764,1.08-1.764,1.805c0,0.287,0.075,0.519,0.226,0.693c0.15,0.176,0.346,0.264,0.588,0.264
		c0.214,0,0.462-0.07,0.745-0.212s0.599-0.354,0.95-0.636V53.231z"/>
	<path d="M43.08,51.365h-1.688v3.384c0,0.52,0.023,0.869,0.068,1.049c0.045,0.181,0.143,0.325,0.291,0.435s0.307,0.164,0.475,0.164
		c0.328,0,0.613-0.187,0.854-0.561l0.219,0.13c-0.141,0.301-0.35,0.527-0.625,0.68c-0.276,0.153-0.555,0.229-0.837,0.229
		c-0.328,0-0.616-0.097-0.865-0.29c-0.249-0.194-0.403-0.421-0.465-0.681s-0.092-0.716-0.092-1.367v-3.172h-0.813v-0.314
		c0.374-0.009,0.708-0.166,1.005-0.472s0.485-0.733,0.567-1.285h0.219v1.757h1.688V51.365z"/>
	<path d="M45.575,50.825v3.903c0,0.597,0.009,0.973,0.027,1.128s0.084,0.273,0.198,0.355s0.317,0.123,0.608,0.123h0.144v0.314
		h-3.015v-0.314h0.232c0.324,0,0.534-0.047,0.632-0.141c0.098-0.093,0.155-0.205,0.171-0.334c0.016-0.131,0.024-0.508,0.024-1.132
		v-1.695c0-0.656-0.031-1.058-0.092-1.203s-0.144-0.237-0.246-0.273s-0.281-0.055-0.537-0.055h-0.185v-0.314
		c0.811-0.082,1.44-0.203,1.887-0.362H45.575z M44.256,47.968c0-0.196,0.069-0.364,0.208-0.506s0.307-0.212,0.502-0.212
		s0.362,0.07,0.499,0.212s0.205,0.31,0.205,0.506c0,0.2-0.068,0.371-0.205,0.513s-0.303,0.212-0.499,0.212s-0.363-0.07-0.502-0.212
		S44.256,48.168,44.256,47.968z"/>
	<path d="M47.339,53.84c0-0.856,0.287-1.573,0.861-2.149c0.574-0.577,1.281-0.865,2.119-0.865c0.843,0,1.552,0.289,2.126,0.868
		s0.861,1.294,0.861,2.146c0,0.943-0.292,1.685-0.875,2.226c-0.583,0.539-1.288,0.81-2.112,0.81s-1.528-0.274-2.109-0.823
		C47.629,55.502,47.339,54.765,47.339,53.84z M48.474,53.874c0,0.993,0.162,1.689,0.485,2.088c0.324,0.399,0.777,0.599,1.36,0.599
		c0.597,0,1.054-0.199,1.371-0.599c0.317-0.398,0.475-1.095,0.475-2.088c0-0.984-0.157-1.687-0.472-2.105s-0.772-0.629-1.374-0.629
		c-0.597,0-1.054,0.209-1.371,0.625C48.632,52.183,48.474,52.885,48.474,53.874z"/>
	<path d="M55.747,50.825h0.185c0.105,0.282,0.164,0.668,0.178,1.155c0.328-0.388,0.672-0.677,1.032-0.868s0.736-0.287,1.128-0.287
		c0.447,0,0.812,0.094,1.098,0.28c0.284,0.187,0.468,0.416,0.55,0.687c0.082,0.271,0.123,0.667,0.123,1.187v1.75
		c0,0.647,0.012,1.041,0.034,1.183s0.095,0.247,0.216,0.318c0.12,0.07,0.343,0.105,0.666,0.105v0.314h-2.864v-0.314h0.13
		c0.328,0,0.542-0.048,0.643-0.144s0.157-0.207,0.171-0.335s0.021-0.504,0.021-1.128v-1.805c0-0.442-0.021-0.758-0.065-0.946
		c-0.043-0.189-0.16-0.357-0.349-0.503s-0.43-0.219-0.721-0.219c-0.333,0-0.65,0.099-0.954,0.298
		c-0.303,0.197-0.589,0.495-0.858,0.892v2.283c0,0.647,0.013,1.041,0.038,1.183s0.098,0.247,0.219,0.318
		c0.121,0.07,0.345,0.105,0.673,0.105v0.314h-2.83v-0.314c0.314,0,0.533-0.032,0.656-0.096s0.199-0.16,0.229-0.291
		c0.03-0.129,0.044-0.536,0.044-1.22v-1.668c0-0.651-0.013-1.047-0.038-1.187c-0.025-0.139-0.098-0.243-0.219-0.314
		c-0.121-0.07-0.345-0.105-0.673-0.105V51.14C54.71,51.085,55.223,50.98,55.747,50.825z"/>
	<path d="M80.859,50.825v3.903c0,0.597,0.009,0.973,0.027,1.128s0.084,0.273,0.198,0.355s0.316,0.123,0.608,0.123h0.144v0.314
		h-3.015v-0.314h0.232c0.323,0,0.534-0.047,0.633-0.141c0.098-0.093,0.154-0.205,0.17-0.334c0.017-0.131,0.024-0.508,0.024-1.132
		v-1.695c0-0.656-0.03-1.058-0.093-1.203c-0.061-0.146-0.143-0.237-0.246-0.273c-0.102-0.036-0.281-0.055-0.536-0.055h-0.185v-0.314
		c0.812-0.082,1.44-0.203,1.887-0.362H80.859z M79.54,47.968c0-0.196,0.069-0.364,0.208-0.506c0.14-0.142,0.307-0.212,0.503-0.212
		s0.362,0.07,0.499,0.212s0.205,0.31,0.205,0.506c0,0.2-0.068,0.371-0.205,0.513s-0.303,0.212-0.499,0.212s-0.363-0.07-0.503-0.212
		C79.609,48.339,79.54,48.168,79.54,47.968z"/>
	<path d="M82.671,56.827v-1.839h0.267c0.31,1.062,0.863,1.593,1.661,1.593c0.347,0,0.604-0.104,0.776-0.314
		c0.17-0.21,0.256-0.439,0.256-0.69c0-0.292-0.091-0.531-0.273-0.718c-0.187-0.187-0.549-0.412-1.087-0.677
		c-0.565-0.278-0.971-0.552-1.217-0.82c-0.246-0.265-0.369-0.59-0.369-0.978c0-0.369,0.132-0.721,0.396-1.057
		c0.265-0.334,0.636-0.502,1.114-0.502c0.487,0,0.891,0.198,1.21,0.595c0.068-0.068,0.157-0.234,0.267-0.499h0.253v1.729h-0.253
		c-0.091-0.415-0.268-0.771-0.529-1.069c-0.263-0.299-0.571-0.448-0.927-0.448c-0.273,0-0.494,0.084-0.663,0.253
		S83.3,51.75,83.3,51.974c0,0.246,0.094,0.458,0.28,0.636c0.183,0.183,0.531,0.39,1.046,0.622c0.774,0.351,1.249,0.692,1.422,1.025
		c0.173,0.337,0.26,0.661,0.26,0.971c0,0.487-0.161,0.884-0.481,1.189c-0.322,0.306-0.727,0.458-1.214,0.458
		c-0.515,0-0.973-0.212-1.374-0.636c-0.123,0.137-0.224,0.333-0.301,0.588H82.671z"/>
	<path d="M107.961,51.365h-1.688v3.384c0,0.52,0.022,0.869,0.068,1.049c0.046,0.181,0.143,0.325,0.29,0.435
		c0.148,0.109,0.307,0.164,0.476,0.164c0.328,0,0.613-0.187,0.854-0.561l0.219,0.13c-0.142,0.301-0.35,0.527-0.625,0.68
		c-0.276,0.153-0.556,0.229-0.838,0.229c-0.328,0-0.616-0.097-0.865-0.29c-0.248-0.194-0.402-0.421-0.465-0.681
		c-0.061-0.26-0.092-0.716-0.092-1.367v-3.172h-0.813v-0.314c0.374-0.009,0.709-0.166,1.005-0.472s0.485-0.733,0.567-1.285h0.219
		v1.757h1.688V51.365z"/>
	<path d="M108.72,53.84c0-0.856,0.287-1.573,0.861-2.149c0.574-0.577,1.28-0.865,2.119-0.865c0.843,0,1.552,0.289,2.126,0.868
		s0.861,1.294,0.861,2.146c0,0.943-0.292,1.685-0.875,2.226c-0.583,0.539-1.287,0.81-2.112,0.81s-1.527-0.274-2.109-0.823
		C109.011,55.502,108.72,54.765,108.72,53.84z M109.854,53.874c0,0.993,0.162,1.689,0.485,2.088c0.323,0.399,0.777,0.599,1.36,0.599
		c0.597,0,1.054-0.199,1.371-0.599c0.316-0.398,0.475-1.095,0.475-2.088c0-0.984-0.157-1.687-0.472-2.105s-0.772-0.629-1.374-0.629
		c-0.597,0-1.054,0.209-1.371,0.625C110.013,52.183,109.854,52.885,109.854,53.874z"/>
	<path d="M3.63,78.59l1.299-3.11c0.187-0.456,0.28-0.709,0.28-0.759c0-0.228-0.253-0.347-0.759-0.355v-0.314h1.969v0.314
		c-0.305,0.014-0.529,0.095-0.67,0.243c-0.141,0.147-0.317,0.475-0.526,0.98l-2.495,6.022c-0.237,0.574-0.447,0.965-0.629,1.173
		c-0.182,0.207-0.383,0.311-0.602,0.311c-0.296,0-0.444-0.135-0.444-0.403c0-0.31,0.237-0.572,0.711-0.786
		c0.278-0.123,0.464-0.228,0.557-0.314s0.186-0.244,0.277-0.472l0.533-1.333l-2.105-4.512c-0.187-0.396-0.342-0.647-0.465-0.752
		s-0.333-0.157-0.629-0.157v-0.314h2.57v0.314c-0.451,0.014-0.677,0.107-0.677,0.28c0,0.068,0.089,0.292,0.267,0.67L3.63,78.59z"/>
	<path d="M8.675,73.825v3.903c0,0.597,0.009,0.973,0.027,1.128S8.787,79.13,8.9,79.212s0.317,0.123,0.608,0.123h0.144v0.314H6.638
		v-0.314H6.87c0.324,0,0.534-0.047,0.632-0.141c0.098-0.093,0.155-0.205,0.171-0.334c0.016-0.131,0.024-0.508,0.024-1.132v-1.695
		c0-0.656-0.031-1.058-0.092-1.203s-0.144-0.237-0.246-0.273s-0.281-0.055-0.537-0.055H6.638v-0.314
		c0.811-0.082,1.44-0.203,1.887-0.362H8.675z M7.355,70.968c0-0.196,0.069-0.364,0.208-0.506s0.307-0.212,0.502-0.212
		s0.362,0.07,0.499,0.212s0.205,0.31,0.205,0.506c0,0.2-0.068,0.371-0.205,0.513s-0.303,0.212-0.499,0.212s-0.363-0.07-0.502-0.212
		S7.355,71.168,7.355,70.968z"/>
	<path d="M15.511,75.944h-3.903c-0.018,0.269-0.027,0.47-0.027,0.602c0,0.984,0.154,1.724,0.461,2.219
		c0.308,0.494,0.767,0.741,1.377,0.741c0.83,0,1.417-0.371,1.764-1.114h0.328c-0.146,0.465-0.435,0.828-0.868,1.09
		c-0.433,0.263-0.905,0.394-1.415,0.394c-0.474,0-0.922-0.12-1.343-0.358c-0.421-0.24-0.767-0.578-1.036-1.016
		s-0.403-0.969-0.403-1.593c0-0.884,0.26-1.619,0.779-2.204c0.52-0.586,1.169-0.879,1.948-0.879c0.734,0,1.301,0.224,1.702,0.67
		S15.488,75.425,15.511,75.944z M14.314,75.671c0.014-0.104,0.021-0.198,0.021-0.28c0-0.401-0.117-0.712-0.352-0.933
		c-0.235-0.222-0.523-0.332-0.865-0.332c-0.83,0-1.324,0.515-1.483,1.545H14.314z"/>
	<path d="M18.19,70.25v7.479c0,0.597,0.008,0.973,0.024,1.128s0.081,0.273,0.195,0.355s0.317,0.123,0.608,0.123h0.164v0.314h-2.994
		v-0.314h0.191c0.273,0,0.468-0.037,0.584-0.113c0.116-0.074,0.186-0.181,0.208-0.317s0.034-0.528,0.034-1.176v-5.537
		c0-0.588-0.052-0.958-0.157-1.11c-0.105-0.153-0.36-0.229-0.766-0.229v-0.314c0.278,0,0.605-0.032,0.981-0.096
		s0.635-0.128,0.776-0.191H18.19z"/>
	<path d="M24.657,74.646v-2.188c0-0.597-0.008-0.973-0.024-1.128s-0.081-0.273-0.195-0.355s-0.317-0.123-0.608-0.123h-0.144v-0.314
		c0.551-0.014,1.155-0.109,1.812-0.287h0.144v7.526c0,0.651,0.011,1.048,0.034,1.189s0.095,0.246,0.215,0.314
		s0.345,0.103,0.673,0.103v0.314c-0.661,0.014-1.249,0.073-1.764,0.178c-0.055-0.214-0.082-0.552-0.082-1.012
		c-0.337,0.337-0.685,0.59-1.042,0.759s-0.728,0.253-1.111,0.253c-0.725,0-1.35-0.292-1.876-0.875s-0.79-1.29-0.79-2.119
		c0-0.911,0.269-1.648,0.807-2.212c0.538-0.562,1.178-0.844,1.921-0.844c0.378,0,0.736,0.068,1.073,0.205
		S24.356,74.372,24.657,74.646z M24.657,75.042c-0.301-0.26-0.603-0.455-0.906-0.584c-0.303-0.131-0.607-0.195-0.913-0.195
		c-0.515,0-0.944,0.198-1.289,0.595s-0.516,1.044-0.516,1.941c0,0.911,0.177,1.584,0.53,2.017s0.79,0.649,1.309,0.649
		c0.346,0,0.667-0.082,0.964-0.246s0.57-0.41,0.82-0.738V75.042z"/>
	<path d="M34.036,74.365h-1.688v3.384c0,0.52,0.023,0.869,0.068,1.049c0.045,0.181,0.143,0.325,0.291,0.435s0.307,0.164,0.475,0.164
		c0.328,0,0.613-0.187,0.854-0.561l0.219,0.13c-0.141,0.301-0.35,0.527-0.625,0.68c-0.276,0.153-0.555,0.229-0.837,0.229
		c-0.328,0-0.616-0.097-0.865-0.29c-0.249-0.194-0.403-0.421-0.465-0.681s-0.092-0.716-0.092-1.367v-3.172h-0.813v-0.314
		c0.374-0.009,0.708-0.166,1.005-0.472s0.485-0.733,0.567-1.285h0.219v1.757h1.688V74.365z"/>
	<path d="M34.795,76.84c0-0.856,0.287-1.573,0.861-2.149c0.574-0.577,1.281-0.865,2.119-0.865c0.843,0,1.552,0.289,2.126,0.868
		s0.861,1.294,0.861,2.146c0,0.943-0.292,1.685-0.875,2.226c-0.583,0.539-1.288,0.81-2.112,0.81s-1.528-0.274-2.109-0.823
		C35.085,78.502,34.795,77.765,34.795,76.84z M35.93,76.874c0,0.993,0.162,1.689,0.485,2.088c0.324,0.399,0.777,0.599,1.36,0.599
		c0.597,0,1.054-0.199,1.371-0.599c0.317-0.398,0.475-1.095,0.475-2.088c0-0.984-0.157-1.687-0.472-2.105s-0.772-0.629-1.374-0.629
		c-0.597,0-1.054,0.209-1.371,0.625C36.088,75.183,35.93,75.885,35.93,76.874z"/>
	<path d="M47.031,73.825v3.903c0,0.597,0.009,0.973,0.027,1.128s0.084,0.273,0.198,0.355s0.317,0.123,0.608,0.123h0.144v0.314
		h-3.015v-0.314h0.232c0.324,0,0.534-0.047,0.632-0.141c0.098-0.093,0.155-0.205,0.171-0.334c0.016-0.131,0.024-0.508,0.024-1.132
		v-1.695c0-0.656-0.031-1.058-0.092-1.203s-0.144-0.237-0.246-0.273s-0.281-0.055-0.537-0.055h-0.185v-0.314
		c0.811-0.082,1.44-0.203,1.887-0.362H47.031z M45.712,70.968c0-0.196,0.069-0.364,0.208-0.506s0.307-0.212,0.502-0.212
		s0.362,0.07,0.499,0.212s0.205,0.31,0.205,0.506c0,0.2-0.068,0.371-0.205,0.513s-0.303,0.212-0.499,0.212s-0.363-0.07-0.502-0.212
		S45.712,71.168,45.712,70.968z"/>
	<path d="M52.117,74.365h-1.688v3.384c0,0.52,0.023,0.869,0.068,1.049c0.045,0.181,0.143,0.325,0.291,0.435s0.307,0.164,0.475,0.164
		c0.328,0,0.613-0.187,0.854-0.561l0.219,0.13c-0.141,0.301-0.35,0.527-0.625,0.68c-0.276,0.153-0.555,0.229-0.837,0.229
		c-0.328,0-0.616-0.097-0.865-0.29c-0.249-0.194-0.403-0.421-0.465-0.681s-0.092-0.716-0.092-1.367v-3.172h-0.813v-0.314
		c0.374-0.009,0.708-0.166,1.005-0.472s0.485-0.733,0.567-1.285h0.219v1.757h1.688V74.365z"/>
	<path d="M53.361,79.137c0-0.2,0.072-0.372,0.215-0.517c0.144-0.143,0.315-0.215,0.516-0.215c0.205,0,0.379,0.072,0.523,0.215
		c0.144,0.145,0.215,0.316,0.215,0.517c0,0.205-0.073,0.38-0.219,0.522c-0.146,0.145-0.319,0.216-0.52,0.216
		c-0.205,0-0.378-0.074-0.52-0.222C53.432,79.505,53.361,79.333,53.361,79.137z"/>
	<path d="M56.608,73.962V73.6c0.884-0.173,1.326-0.668,1.326-1.483c0-0.287-0.084-0.431-0.253-0.431
		c-0.037,0-0.082,0.007-0.137,0.021c-0.105,0.032-0.196,0.048-0.273,0.048c-0.223,0-0.401-0.07-0.533-0.212
		s-0.198-0.301-0.198-0.479s0.067-0.336,0.202-0.475c0.134-0.14,0.309-0.209,0.523-0.209c0.292,0,0.546,0.137,0.762,0.41
		s0.325,0.641,0.325,1.101c0,0.528-0.151,0.979-0.455,1.351C57.594,73.612,57.165,73.853,56.608,73.962z M59.705,73.962V73.6
		c0.884-0.173,1.326-0.668,1.326-1.483c0-0.287-0.087-0.431-0.26-0.431c-0.032,0-0.077,0.007-0.137,0.021
		c-0.104,0.032-0.196,0.048-0.273,0.048c-0.219,0-0.396-0.07-0.529-0.212c-0.135-0.142-0.202-0.301-0.202-0.479
		c0-0.169,0.065-0.324,0.194-0.469c0.13-0.143,0.307-0.215,0.53-0.215c0.292,0,0.546,0.137,0.762,0.41
		c0.217,0.273,0.325,0.641,0.325,1.101c0,0.528-0.151,0.979-0.454,1.351C60.684,73.612,60.257,73.853,59.705,73.962z"/>
</g>
</svg>
